<svg width="414" height="400" viewBox="0 0 414 400" fill="none" xmlns="http://www.w3.org/2000/svg">
<path d="M162.491 357.147C112.76 342.863 82.5669 319.349 55.8682 268.882C31.1863 222.227 17.5695 182.334 34.2288 131.166C52.8984 73.8244 93.7415 49.4805 146.513 42.7235C209.916 34.6054 256.379 69.1726 290.754 131.166C328.485 199.211 343.927 285.452 290.754 338.005C252.398 375.914 211.502 371.224 162.491 357.147Z" fill="url(#paint0_linear_446_4245)" fill-opacity="0.35"/>
<path d="M179.656 394.816C106.652 377.8 62.3314 349.79 23.1393 289.673C-13.0921 234.097 -1.31547 133.226 23.1393 72.2752C50.545 3.96919 156.047 -14.958 239.971 11.4199C303.528 31.3959 317.476 51.7783 367.937 125.626C423.323 206.681 437.644 278.351 359.59 340.953C303.286 386.11 251.6 411.584 179.656 394.816Z" fill="url(#paint1_linear_446_4245)" fill-opacity="0.45"/>
<path d="M156.533 287.046C120.885 278.292 99.2428 263.88 80.1051 232.948C62.4132 204.353 52.6527 179.902 64.594 148.542C77.9764 113.397 107.253 98.4763 145.08 94.335C190.526 89.3594 223.831 110.546 248.471 148.542C275.517 190.247 286.586 243.104 248.471 275.314C220.978 298.548 191.664 295.674 156.533 287.046Z" fill="url(#paint2_linear_446_4245)" fill-opacity="0.35"/>
<defs>
<linearGradient id="paint0_linear_446_4245" x1="175.988" y1="367.459" x2="175.988" y2="41.5521" gradientUnits="userSpaceOnUse">
<stop stop-color="#00FFFF"/>
<stop offset="0.307292" stop-color="#297DBB"/>
<stop offset="0.5" stop-color="#5055B3"/>
<stop offset="1" stop-color="#FF4A31"/>
</linearGradient>
<linearGradient id="paint1_linear_446_4245" x1="196.29" y1="400.8" x2="196.29" y2="12.577" gradientUnits="userSpaceOnUse">
<stop stop-color="#00FFFF"/>
<stop offset="0.307292" stop-color="#297DBB"/>
<stop offset="0.5" stop-color="#5055B3"/>
<stop offset="1" stop-color="#FF4A31"/>
</linearGradient>
<linearGradient id="paint2_linear_446_4245" x1="166.207" y1="293.367" x2="166.207" y2="93.617" gradientUnits="userSpaceOnUse">
<stop stop-color="#00FFFF"/>
<stop offset="0.307292" stop-color="#297DBB"/>
<stop offset="0.5" stop-color="#5055B3"/>
<stop offset="1" stop-color="#FF4A31"/>
</linearGradient>
</defs>
</svg>
