<svg width="1728" height="1117" viewBox="0 0 1728 1117" fill="none" xmlns="http://www.w3.org/2000/svg">
<g clip-path="url(#clip0_439_3919)">
<path fill-rule="evenodd" clip-rule="evenodd" d="M591.663 348.217C591.547 321.928 545.027 292.365 525.155 277.124C485.864 246.978 444.999 219.141 404.512 190.858C364.026 162.576 323.43 134.37 284.824 103.32C259.757 83.1648 230.303 60.4638 213.302 31.6831C177.086 -29.6502 291.273 -20.5421 320.851 -21.8838C396.096 -25.3108 482.402 -23.7468 552.933 -55.6861C595.037 -74.7531 611.826 -106.731 602.783 -153.336C599.868 -168.493 591.241 -185.935 598.549 -200.701C606.354 -216.471 624.309 -225.572 639.211 -231.674C693.564 -253.908 756.057 -256.484 813.566 -259.274C875.578 -262.341 938.173 -261.444 999.748 -261.682C1025.86 -261.781 1053.12 -271.648 1077.99 -279.668C1110.58 -290.179 1142.79 -301.985 1175.12 -313.401C1246.23 -338.456 1319.51 -364.844 1394.74 -371.208C1441.86 -375.194 1493.36 -369.805 1529.96 -335.128C1548.34 -317.717 1557.96 -291.835 1568.58 -268.842C1581.44 -241.066 1593.8 -213.021 1607.49 -185.682C1651.6 -97.6305 1714.57 -11.5875 1816.78 -7.26348C1832.25 -6.61181 1847.43 -8.73546 1862.82 -9.13412C1872.62 -9.37945 1881.35 -6.88775 1884.99 3.89925C1894.15 30.9549 1865.36 73.6658 1853.55 95.1325C1827.71 142.121 1798.56 187.002 1771.25 233.048C1753.19 263.5 1721.92 305.115 1721.59 342.114C1721.3 375.081 1762.98 398.909 1785.68 415.147C1806.94 430.35 1845.47 451.625 1847.8 482.552C1848.93 497.548 1839.53 509.976 1829.71 519.62C1812.51 536.487 1792.69 548.386 1777.21 567.629C1751.83 599.2 1730.62 642.64 1734.07 685.182C1736.46 714.66 1752.45 733.965 1772.79 752.419C1781.33 760.177 1788.27 765.667 1788.72 778.263C1789.45 798.265 1782 819.433 1775.87 837.979C1753.92 904.349 1722.75 968.527 1688.07 1028.45C1670.74 1058.4 1652.02 1088.25 1629.04 1113.79C1613.99 1130.57 1593.7 1150.53 1570.75 1150.51C1544.17 1150.51 1516.05 1140.42 1490.22 1132.88C1441.97 1118.78 1394.31 1102.48 1346.83 1085.76C1237.04 1047.07 1128.28 1005.25 1020.56 960.3C944.68 928.583 867.191 896.82 795.851 854.654C781.938 846.373 768.806 836.718 756.633 825.819C743.626 814.373 727.485 809.252 711.118 805.434C609.538 781.736 498.252 799.929 396.249 811.337C370.358 814.227 344.468 817.133 318.504 819.157C296.184 820.897 269.463 825.888 247.77 818.39C205.024 803.632 242.392 749.237 258.19 727.073C313.811 649.034 385.573 583.008 452.089 515.603C483.714 483.503 515.58 451.487 545.486 417.569C561.058 399.936 591.765 371.263 591.663 348.217Z" stroke="#00FFFF" stroke-opacity="0.15" stroke-width="5"/>
<path fill-rule="evenodd" clip-rule="evenodd" d="M610.831 343.785C593.782 315.967 563.871 295.407 539.042 276.057C503.311 248.201 466.457 221.893 430.158 194.826C395.835 169.231 361.439 143.344 329.653 114.277C310.271 96.5523 285.952 75.3557 276.772 49.1396C256.857 -7.68358 363.991 0.937601 390.439 -0.54907C456.19 -4.22744 530.736 -5.07043 591.565 -34.9879C629.549 -53.6709 645.154 -84.6535 637.053 -127.667C634.253 -142.55 629.207 -155.255 635.594 -170.061C642.981 -187.196 659.971 -197.878 675.547 -205.419C724.337 -229.045 782.009 -234.064 834.898 -238.241C889.537 -242.555 946.465 -245.598 999.346 -242.44C1020.49 -241.184 1044.83 -248.318 1065.76 -253.79C1097.96 -262.219 1129.84 -271.944 1161.88 -280.987C1226.99 -299.379 1293.8 -317.096 1361.54 -319.111C1410.45 -320.567 1461.44 -312.674 1502.13 -282.167C1543.37 -251.23 1561.67 -203.273 1584.53 -157.685C1624.03 -78.8678 1677.37 16.9615 1768.73 33.6138C1782.59 36.1427 1795.9 34.771 1809.74 35.3918C1816.86 35.7059 1824.96 36.7021 1828.57 44.0818C1837.94 63.24 1812.27 98.2689 1803.63 112.944C1779.75 153.498 1752.91 192.067 1727.89 231.84C1708.02 263.42 1682.84 298.51 1675.15 335.945C1665.82 381.373 1726.76 413.697 1748.19 445.684C1785.35 501.15 1714.96 532.754 1680.25 559.2C1640.4 589.562 1607.51 644.952 1643.23 691.928C1656.9 709.89 1673.71 720.596 1679.82 744.038C1689.36 780.699 1682.14 822.594 1674.4 858.834C1662.73 913.312 1644.27 967.2 1619.17 1016.44C1601.19 1051.69 1571.36 1106.96 1527.67 1102.82C1498.26 1100.05 1468.36 1089.94 1439.73 1081.01C1396.85 1067.64 1354.52 1052.39 1312.4 1036.56C1215.2 1000.11 1119.06 959.928 1024.81 915.726C960.502 885.556 781.12 762.261 767.622 757.862C727.378 744.758 681.621 747.065 640.13 749.096C584.937 751.793 530.021 758.782 475.149 765.258C449.03 768.323 422.779 772.07 396.52 773.58C377.831 774.653 353.286 775.572 336.916 764.146C304.962 741.854 340.562 690.847 355.284 669.267C400.385 603.11 457.437 545.82 510.931 487.241C537.182 458.481 563.834 429.767 587.664 398.7C597.275 386.155 621.368 360.966 610.831 343.785Z" stroke="#297DBB" stroke-opacity="0.15" stroke-width="5"/>
<path fill-rule="evenodd" clip-rule="evenodd" d="M634.417 329.518C587.857 273.852 523.596 232.451 468.134 185.96C440.297 162.619 412.286 138.642 388.277 110.839C375.787 96.3822 360.192 78.1001 357.786 57.9477C351.356 4.0368 447.916 11.3267 476.817 9.27998C532.695 5.30929 595.819 2.29683 646.512 -25.2144C677.484 -42.0323 692.737 -69.6355 686.948 -105.916C684.381 -122.013 680.386 -135.688 686.948 -151.495C693.597 -167.508 707.45 -178.806 721.477 -187.277C761.789 -211.637 811.884 -219.426 857.27 -225.228C910.512 -231.987 964.155 -234.626 1017.76 -233.124C1064.72 -231.828 1111.44 -246.4 1157.29 -256.005C1218.02 -268.722 1279.86 -279.829 1342 -278.15C1391.09 -276.817 1440.56 -266.338 1482.51 -238.49C1525.15 -210.127 1550.79 -167.676 1573.9 -121.868C1608.84 -52.6183 1652.38 40.1794 1729.03 66.4794C1740.17 70.3121 1750.56 70.7337 1762.06 71.4006C1767.65 71.7226 1774.86 71.8222 1777.63 77.9469C1784.29 92.6952 1759.66 121.287 1752.78 131.252C1730.83 163.064 1707.04 193.442 1684.55 224.832C1663.55 254.137 1640.68 284.676 1627.64 319.017C1606.88 373.71 1673.24 405.69 1671.38 457.807C1670.23 490.163 1640.76 513.366 1617.43 529.417C1588.71 549.156 1547.34 562.133 1532.97 598.153C1522.26 624.982 1539.06 640.597 1552 660.956C1573.93 695.45 1575.43 742.209 1573.15 782.139C1570.07 836.096 1558.05 890.85 1537.58 940.445C1528.31 962.928 1516.95 986.315 1500.22 1003.78C1484.56 1020.14 1469.73 1024.34 1448.79 1020.99C1384.69 1010.71 1319.96 982.084 1258.49 956.512C1181.26 924.378 1105.09 888.903 1031.2 848.989C980.814 821.769 929.29 792.97 885.063 755.363C873.536 745.559 861.732 734.904 853.304 721.973C846.932 712.253 844.227 704.227 833.487 698.677C801.655 682.235 757.378 686.535 723.271 688.245C668.735 690.966 614.462 698.21 560.261 704.733C528.633 708.566 469.052 720.624 443.797 691.702C421.997 666.728 448.303 624.147 461.74 602.147C495.73 546.511 539.453 497.682 580.02 447.405C598.611 424.363 617.932 401.144 633.287 375.526C637.209 368.995 643.494 360.341 644.573 352.407C645.783 343.316 640.133 336.379 634.417 329.518Z" stroke="#00FFFF" stroke-opacity="0.15" stroke-width="5"/>
<path fill-rule="evenodd" clip-rule="evenodd" d="M638.42 342.477C595.397 293.258 543.566 252.822 497.379 206.764C476.669 186.113 455.756 164.449 439.976 139.256C431.488 125.708 422.475 108.655 424.816 91.8166C431.532 43.4872 510.949 47.8523 543.034 45.0215C590.709 40.8637 645.479 36.6751 687.633 10.6156C715.248 -6.4531 725.603 -31.6611 720.447 -64.1722C714.913 -99.046 727.287 -124.361 755.449 -143.816C790.757 -168.188 835.325 -178.122 876.321 -185.18C925.712 -193.642 975.729 -197.393 1025.76 -196.387C1074.42 -195.405 1121.56 -203.982 1169.9 -209.559C1233.99 -216.947 1300.14 -220.59 1363.5 -205.447C1418.68 -192.26 1468.51 -163.201 1505.87 -118.263C1544.89 -71.3602 1564.2 -12.2679 1595.89 39.621C1615.65 71.9863 1643.2 114.8 1680.13 127.381C1692.45 131.577 1714.89 125.916 1705.05 146.559C1699.43 158.365 1688.91 168.722 1680.6 178.372C1667.16 193.968 1653.29 209.134 1639.63 224.515C1610.52 257.302 1579.35 290.788 1557.53 329.612C1530.04 378.494 1570.9 416.114 1565.92 465.679C1563.25 492.352 1545.61 513.64 1526.96 530.363C1514.89 541.195 1501.69 550.577 1488.2 559.33C1474.12 568.474 1457.46 575.44 1445.18 587.262C1427.68 604.085 1435.28 623.999 1438.56 645.748C1444.34 683.968 1445.61 722.792 1442.34 761.339C1438.34 808.587 1428.97 857.185 1409.23 900.121C1401.55 916.837 1391.83 934.558 1377.38 945.766C1362.94 956.973 1347.99 956.206 1331.44 952.831C1282.35 942.858 1233.35 919.652 1186.78 897.659C1128.48 870.126 1071.34 839.357 1016.76 804.352C979.094 780.188 941.299 754.082 909.783 721.318C900.617 711.782 891.896 701.572 884.845 690.172C880.003 682.355 877.407 672.267 870.392 666.391C848.443 648.049 804.378 653.526 778.637 654.593C727.265 656.718 676.703 666.821 625.397 669.276C597.395 670.618 553.541 673.994 532.978 648.916C513.64 625.342 531.155 588.213 542.713 565.498C565.427 520.836 595.944 481.044 623.296 439.527C634.541 422.443 646.864 404.569 654.149 385.061C660.624 367.678 649.445 355.097 638.42 342.477Z" stroke="#297DBB" stroke-opacity="0.15" stroke-width="5"/>
<path fill-rule="evenodd" clip-rule="evenodd" d="M649.001 343.282C614.757 299.97 573.474 261.523 538.981 217.507C518.792 191.73 484.022 148.396 499.636 112.055C516.766 72.1216 576.476 71.0339 610.99 67.8166C652.069 63.9864 700.31 58.7544 735.466 33.82C746.584 25.9375 756.056 15.5041 760.071 1.76149C764.37 -12.9463 759.67 -25.8157 759.058 -40.5388C757.776 -71.4253 775.306 -96.2218 798.505 -113.251C831.292 -137.327 872.291 -148.71 911.017 -156.647C954.891 -165.598 999.493 -170.011 1044.18 -169.822C1086.9 -169.669 1129.16 -170.665 1171.91 -171.814C1227.82 -173.346 1284.52 -170.872 1338.76 -155.252C1392.19 -139.855 1440.77 -110.999 1478.92 -68.5527C1516.15 -27.1333 1541.26 23.4938 1563.26 75.0631C1575.74 104.333 1596.83 148.074 1626.6 162.858C1639.84 169.438 1652.83 168.986 1638.75 186.1C1621.03 207.648 1597.13 224.938 1576.6 243.368C1546.98 269.965 1516.62 297.083 1491.76 328.704C1475.89 348.897 1468.81 368.492 1469.9 394.637C1470.75 414.554 1474.58 434.264 1472.64 454.257C1468.1 501.184 1432.96 533.365 1401.9 563.333C1381.91 582.606 1363.66 597.306 1353.37 624.723C1341.2 657.126 1336.1 692.379 1327.96 726.023C1319.03 762.969 1308.71 801.4 1289.22 833.941C1271.86 862.913 1250.75 875.905 1219.16 868.099C1169.88 855.934 1121.32 825.967 1077.57 798.244C1033.04 770.039 989.284 738.325 952.387 699.556C932.467 678.621 918.871 654.039 901.181 631.548C878.929 603.312 828.589 614.006 798.672 616.396C749.01 620.364 592.745 650.055 607.165 553.887C613.183 513.747 636.885 476.702 654.218 441.281C661.402 426.58 671.8 408.939 673.424 392.094C675.195 373.747 659.297 356.32 649.001 343.282Z" stroke="#FF4A31" stroke-opacity="0.15" stroke-width="5"/>
<path fill-rule="evenodd" clip-rule="evenodd" d="M667.082 346.96C640.913 307.711 609.595 270.631 587.14 228.239C572.574 200.786 558.269 164.104 577.06 135.057C598.269 102.276 645.036 94.6349 679.398 90.4579C714.803 86.1582 757.068 82.5407 786.005 57.6853C795.211 49.768 802.8 39.0916 804.213 26.3075C805.575 14.0446 801.729 1.78169 803.004 -10.7035C805.859 -38.7396 822.021 -61.8399 842.858 -78.5941C904.497 -128.159 996.238 -139.181 1070.61 -140.476C1107.83 -141.12 1146.14 -137.74 1183.61 -135.318C1232.23 -132.175 1280.92 -125.431 1327.28 -109.175C1425.86 -74.624 1491.94 2.00393 1538.08 97.3558C1552.61 127.369 1563.72 159.843 1586.48 183.963C1598.21 196.417 1595.65 205.361 1583.65 216.72C1564.9 234.471 1542.02 248.036 1521.21 262.852C1491.6 283.921 1461.36 305.304 1435.18 330.543C1417.13 347.941 1404.32 364.703 1400.43 390.792C1397.65 409.393 1398.3 428.347 1396.63 447.064C1393.46 482.618 1382.58 517.905 1363.33 547.397C1348.04 570.773 1329.83 592.019 1311.01 612.276C1286.55 638.649 1265.85 665.443 1247.27 696.744C1222.64 738.178 1188.03 814.606 1130.01 794.38C1066.02 772.062 1006.04 715.353 964.986 660.408C951.198 641.96 939.88 619.335 921.286 605.73C893.449 585.397 865.204 586.11 832.094 586.194C782.523 586.309 674.657 597.629 673.492 519.514C673.033 488.566 685.764 459.303 691.86 429.535C698.736 396.195 684.956 373.708 667.082 346.96Z" stroke="#FF7171" stroke-opacity="0.15" stroke-width="5"/>
<path fill-rule="evenodd" clip-rule="evenodd" d="M686.573 350.459C660.689 299.305 602.645 215.248 646.792 158.365C670.111 128.303 711.358 117.006 745.958 110.274C773.803 104.829 807.383 102.784 828.422 79.6996C843.886 62.7273 837.021 38.0272 842.946 16.7812C850.299 -9.55796 867.176 -31.1103 887.916 -47.309C945.873 -92.5812 1026.46 -106.475 1096.17 -109.431C1168.58 -112.494 1248.36 -98.1646 1316.5 -70.6C1401.46 -36.2189 1465.11 28.8823 1509.62 111.323C1517.83 126.542 1525.29 142.158 1533.18 157.561C1538.47 167.892 1546.33 177.887 1550.51 188.756C1557.46 206.877 1549.27 221.689 1536.14 233.499C1517.25 250.502 1494.04 262.603 1472.51 275.363C1443.06 292.826 1412.96 309.974 1385.56 330.462C1367.16 344.248 1347.89 359.099 1341.3 383.017C1336.8 399.331 1335.87 416.61 1336.03 433.505C1336.38 469.732 1334.57 499.028 1318.5 532.206C1292.04 586.677 1251.37 635.656 1208.39 676.409C1174.67 708.393 1121.3 758.077 1072.16 736.693C1028.07 717.546 1002.28 671.714 973.237 634.66C959.114 616.647 943.249 600.195 924.608 587.382C901.106 571.229 878.982 564.451 851.137 561.808C804.272 557.358 733.606 556.202 719.119 497.075C713.77 475.254 716.823 452.653 714.018 430.549C710.352 401.322 699.632 376.262 686.573 350.459Z" stroke="#00FFFF" stroke-opacity="0.15" stroke-width="5"/>
<path fill-rule="evenodd" clip-rule="evenodd" d="M713.489 352.354C695.056 296.381 670.842 225.84 715.36 176.094C736.924 151.995 767.256 138.523 796.613 128.456C817.638 121.241 851.021 119.117 863.911 96.9347C873.379 80.6107 874.69 58.0913 883.254 40.6018C895.023 16.5565 912.851 -3.24862 933.766 -18.7523C988.255 -59.1522 1059.22 -74.7632 1123.94 -79.2334C1264.57 -88.9327 1407.66 -11.6828 1482.91 115.413C1505.35 153.298 1534.31 193.622 1498.05 232.327C1458.46 274.552 1398.83 294.334 1351.58 324.337C1333.52 335.792 1310.52 349.563 1300.45 370.303C1294.39 382.771 1293.97 398.412 1293.7 412.137C1292.97 447.093 1290.21 478.53 1276.84 511.147C1256.2 561.553 1223.29 608.057 1186 646.149C1153.48 679.364 1107.09 718.399 1059.86 694.454C1023.64 676.052 1000.67 636.994 972.532 608.202C941.216 576.137 902.487 554.53 859.957 543.972C818.584 533.728 773.206 526.82 751.402 483.299C743.923 468.371 736.108 449.041 733.305 432.517C728.778 405.274 722.151 378.464 713.489 352.354Z" stroke="#FF4A31" stroke-opacity="0.15" stroke-width="5"/>
<path fill-rule="evenodd" clip-rule="evenodd" d="M743.5 352.748C734.973 296.228 734.025 237.293 773.645 192.746C792.135 171.964 815.508 157.2 839.144 143.823C856.534 133.98 874.493 125.678 887.481 109.541C899.513 94.6002 908.66 77.2524 920.278 61.9206C935.603 41.6028 953.939 24.0143 974.583 9.83112C1026.33 -25.6542 1089.28 -42.2509 1149.5 -48.0079C1178.66 -50.806 1210.28 -52.2624 1239.24 -44.6349C1267.2 -37.2757 1294.85 -25.6389 1320.57 -12.0703C1375.23 16.7457 1422.6 58.9463 1456.94 112.301C1480.49 148.898 1493.23 184.482 1462.73 221.608C1428.35 263.456 1374.45 286.546 1330.02 313.706C1299.55 332.334 1265.39 350.594 1259.7 390.181C1255.17 421.68 1251.49 451.576 1239.76 481.351C1222.31 525.268 1196.65 565.051 1164.3 598.339C1134.71 628.666 1097.29 654.4 1054.97 638.202C1021.45 625.346 995.435 596.546 966.143 575.955C933.499 552.958 897.633 540.278 859.865 530.083C825.924 520.884 793.964 506.748 772.027 476.736C767.537 470.603 762.821 463.926 759.359 457.065C754.943 448.311 755.285 439.633 754.418 429.821C752.159 403.926 747.356 378.329 743.5 352.748Z" stroke="#FF7171" stroke-opacity="0.15" stroke-width="5"/>
<path fill-rule="evenodd" clip-rule="evenodd" d="M776.591 348.128C777.319 294.442 789.594 243.705 823.214 201.866C837.587 183.968 854.751 169.226 870.566 152.826C883.3 139.604 895.335 127.319 909.977 116.423C944.712 90.6244 972.941 57.2396 1009.85 34.2664C1059.13 3.55357 1115.57 -13.4229 1171.58 -20.2104C1198.93 -23.5274 1227.18 -24.6868 1254.84 -20.9399C1278.61 -17.7227 1301.37 -6.42807 1322.48 5.12762C1363.86 27.763 1404.03 59.9346 1430.9 100.637C1490.13 190.372 1373.35 255.614 1313.41 293.82C1285.84 311.396 1243.72 331.751 1232.43 366.564C1224.36 391.433 1219.44 416.725 1209.04 440.827C1181.12 505.555 1124.44 581.684 1048.9 571.549C1016.58 567.218 987.117 549.627 956.943 537.818C925.873 525.656 893.805 518.876 861.511 511.436C831.33 504.487 807.275 494.598 787.78 468.085C778.463 455.424 779.286 440.267 778.456 424.734C777.101 399.219 776.263 373.559 776.591 348.128Z" stroke="#00FFFF" stroke-opacity="0.15" stroke-width="5"/>
<path fill-rule="evenodd" clip-rule="evenodd" d="M806.722 341.252C818.858 260.218 863.929 171.751 930.2 124.691C1008.15 69.3324 1092.61 22.7163 1185.75 9.31529C1228.93 3.10135 1276.23 0.0441614 1316.98 20.364C1347.99 35.8184 1384.01 58.9196 1401.07 91.4068C1442.82 170.87 1349.96 234.128 1297.04 270.891C1268.56 290.682 1232.3 309.968 1210.83 338.869C1198.37 355.626 1192.01 377.792 1181.95 396.197C1151.48 451.969 1101.31 496.953 1038.81 504.998C1009.92 508.714 980.813 504.117 952.137 500.462C922.783 496.723 893.064 494.693 863.892 489.475C840.606 485.307 813.162 478.25 804.586 452.038C793.77 419.007 801.77 374.344 806.722 341.252Z" stroke="#297DBB" stroke-opacity="0.15" stroke-width="5"/>
<path fill-rule="evenodd" clip-rule="evenodd" d="M836.27 328.234C853.969 252.048 891.448 177.734 954.452 132.252C987.864 108.135 1026.65 91.4869 1063.89 75.0382C1106.1 56.3962 1150.2 41.9259 1195.24 34.7483C1251.32 25.8069 1342.15 17.7473 1371.45 84.9611C1400.54 151.676 1327.05 210.723 1283.59 244.372C1255.73 265.928 1225.91 285.713 1199.29 309.278C1184.85 322.053 1173.73 336.815 1161.51 351.799C1127.75 393.316 1079.62 426.183 1030.56 443.728C983.015 460.737 924.195 468.267 874.004 462.646C852.348 460.231 836.869 452.079 830.32 428.905C821.244 396.69 828.954 359.705 836.27 328.234Z" stroke="#FF7171" stroke-opacity="0.15" stroke-width="5"/>
<path fill-rule="evenodd" clip-rule="evenodd" d="M865.63 307.715C883.212 240.636 921.136 179.369 976.453 139.109C1038.46 93.9778 1118.31 68.8996 1191.69 56.1467C1230.7 49.3732 1315.24 31.0075 1335.12 83.5693C1355 136.131 1297.52 187.929 1264.44 216.444C1224.29 250.999 1181 284.363 1137.76 315.367C1100.19 342.323 1060.11 369.883 1019.42 390.7C996.466 402.51 972.56 412.152 947.979 419.513C929.778 424.919 906.634 432.984 887.552 428.959C839.42 418.795 857.221 339.788 865.63 307.715Z" stroke="#FF4A31" stroke-opacity="0.15" stroke-width="5"/>
<path fill-rule="evenodd" clip-rule="evenodd" d="M901.872 287.628C940.45 160.774 1062.68 98.3853 1180.36 76.6391C1207.71 71.5913 1284.37 53.3917 1299.65 92.1426C1314.46 129.714 1267.35 174.271 1245.3 195.381C1176.96 260.796 1092.53 309.298 1012.52 357.348C987.543 372.345 942.502 404.892 911.524 389.879C877.888 373.548 893.88 313.932 901.872 287.628Z" stroke="#297DBB" stroke-opacity="0.15" stroke-width="5"/>
<path fill-rule="evenodd" clip-rule="evenodd" d="M941.388 263.212C974.937 169.794 1072.52 116.215 1162.23 98.5517C1184.21 94.2298 1240.01 80.7737 1256.66 106.843C1272.06 130.958 1235.3 165.901 1221.55 179.786C1190.94 210.706 1154.66 236.177 1118.82 260.66C1085.68 283.312 1052.18 306.53 1017.31 325.688C998.941 335.772 964.494 357.29 943.622 341.719C921.151 324.967 933.939 283.956 941.388 263.212Z" stroke="#297DBB" stroke-opacity="0.15" stroke-width="5"/>
<path fill-rule="evenodd" clip-rule="evenodd" d="M984.932 235.919C1010.5 174.913 1078.99 135.297 1139.4 122.133C1155.65 118.599 1190.79 109.429 1204.5 125.721C1217.13 140.726 1196.78 162.722 1187.75 172.881C1147.73 217.909 1089.12 258.13 1035.42 282.833C1021.92 289.043 997.651 301.234 983.763 288.698C969.517 275.825 979.058 249.926 984.932 235.919Z" stroke="#00FFFF" stroke-opacity="0.15" stroke-width="5"/>
<path fill-rule="evenodd" clip-rule="evenodd" d="M1031.13 210.292C1045.53 179.999 1083.19 157.144 1114.39 149.868C1136.34 144.753 1162.73 149.172 1143.6 175.541C1124.59 201.709 1089.32 225.609 1059.43 236.205C1036.63 244.285 1018.75 236.313 1031.13 210.292Z" stroke="#FF7171" stroke-opacity="0.15" stroke-width="5"/>
<path fill-rule="evenodd" clip-rule="evenodd" d="M-137.318 420.107C-138.242 360.258 -168.476 298.059 -153.545 237.077C-141.284 186.992 -79.5561 182.811 -42.5255 160.12C-13.0988 142.093 3.60098 110.158 19.5149 79.5178C33.8135 52.0097 46.6567 23.6746 61.7193 -3.38169C71.4699 -20.8729 88.2134 -55.2197 109.359 -55.84C129.603 -56.4374 148.165 -29.6721 159.924 -13.8504C175.256 6.77303 188.849 28.7596 203.737 49.7123C228.827 85.0547 258.93 111.215 293.399 135.974C332.625 164.146 372.498 191.355 413.019 217.602C442.854 236.985 472.891 256.222 501.568 277.519C519.556 290.883 559.257 315.956 559.44 340.592C559.527 352.347 548.939 365.366 541.801 374.763C529.722 390.669 515.954 405.212 502.143 419.44C476.421 445.945 449.606 471.248 423.083 496.857C388.657 530.093 355.774 562.786 325.511 600.518C294.221 639.574 264.329 679.917 233.826 719.709C213.167 746.666 192.531 776.938 162.733 793.48C125.411 814.157 94.7769 792.354 57.0331 792.102C24.5649 791.879 26.9589 712.725 22.8331 690.715C18.6927 668.438 9.56781 647.699 6.03137 625.368C1.62175 597.493 1.56352 568.974 0.479302 540.799C-0.837765 506.337 -1.36167 473.53 -36.3694 460.389C-56.2928 452.922 -77.8461 451.352 -98.468 446.88C-111.828 443.977 -137.027 439.015 -137.318 420.107Z" stroke="#FF4A31" stroke-opacity="0.15" stroke-width="5"/>
<path fill-rule="evenodd" clip-rule="evenodd" d="M-121.356 409.461C-124.759 359.293 -144.866 295.082 -125.852 243.296C-109.608 199.041 -58.8062 193.304 -24.598 170.057C3.64156 150.883 16.2127 119.506 30.3289 88.6812C41.6539 63.9539 52.6363 38.9889 65.4917 15.0516C74.9657 -2.58881 89.4316 -32.3704 109.13 -36.0212C126.839 -39.3038 145.831 -13.012 155.771 0.364041C170.273 19.8912 182.677 41.0981 195.489 61.8601C218 98.3297 241.051 131.126 273.998 157.916C307.091 184.821 343.296 204.939 379.888 225.878C408.514 242.26 436.994 259.118 464.191 278.032C484.451 292.113 513.579 310.137 522.849 335.248C530.188 355.113 492.97 388.077 481.995 399.712C459.403 423.634 435.463 446.091 411.48 468.41C382.242 495.607 352.071 519.391 326.251 550.415C280.069 605.883 241.466 674.956 182.043 716.181C146.202 741.047 106.317 747.405 66.4537 743.685C50.6687 742.212 46.8791 718.766 44.8896 705.091C41.581 682.373 41.1656 659.264 38.6222 636.454C36.2392 615.102 30.9483 594.815 26.6851 573.877C22.3708 552.662 21.161 530.926 17.9836 509.566C16.016 496.305 14.0702 480.874 5.46346 470.213C-3.44203 459.176 -18.1339 454.551 -30.9747 451.038C-55.0895 444.504 -118.951 444.864 -121.356 409.461Z" stroke="#00FFFF" stroke-opacity="0.15" stroke-width="5"/>
<path fill-rule="evenodd" clip-rule="evenodd" d="M-100.812 388.459C-106.536 342.409 -114.549 285.053 -91.2314 242.626C-72.172 207.935 -31.5232 200.451 -2.48934 177.847C21.6593 159.05 30.7807 129.155 42.7676 101.373C52.6035 78.585 62.4905 55.6978 74.4117 34.0131C83.4529 17.5677 95.1044 -4.72989 113.055 -10.467C128.404 -15.3692 145.742 6.59129 154.251 17.5217C168.739 36.1502 180.551 57.0228 192.282 77.6198C211.473 111.323 229.133 147.323 256.446 174.738C282.986 201.34 314.513 217.042 346.631 234.698C371.232 248.225 395.68 262.273 418.859 278.404C436.657 290.782 458.713 305.451 467.987 326.048C476.008 343.811 455.417 364.837 445.129 377.368C428.14 398.049 409.285 417.022 390.693 436.072C370.627 456.623 348.403 475.581 328.986 496.637C288.155 540.949 255.534 590.01 205.21 623.957C172.618 645.949 128.761 665.925 90.2338 662.333C62.5269 659.744 64.3498 595.233 61.6885 574.621C57.3137 540.918 48.8631 505.507 35.4399 474.463C23.9124 447.86 -3.48094 439.657 -28.6796 433.69C-44.4652 429.944 -61.0091 427.922 -76.277 422.131C-93.951 415.421 -98.4133 407.762 -100.812 388.459Z" stroke="#297DBB" stroke-opacity="0.15" stroke-width="5"/>
<path fill-rule="evenodd" clip-rule="evenodd" d="M-81.6491 366.874C-85.057 327.941 -84.2907 281.902 -62.2159 248.223C-42.8704 218.724 -8.42636 210.957 16.0712 187.718C35.1905 169.588 42.6996 140.027 52.9817 116.051C65.548 86.7363 83.1567 32.5924 114.857 21.5608C144.346 11.3051 175.185 76.8186 185.861 96.3543C202.762 127.275 216.897 161.184 237.396 189.739C255.048 214.322 278.699 227.911 303.803 242.515C335.809 261.167 384.403 283.284 401.516 319.636C414.272 346.724 372.793 386.994 358.628 405.761C343.815 425.366 332.657 448.604 317.369 467.518C293.243 497.363 254.151 521.393 221.874 539.73C190.495 557.568 149.746 577.311 114.149 576.136C90.7534 575.368 86.3019 537.356 81.3105 518.789C74.159 492.393 64.6504 468.739 44.2248 450.786C23.4343 432.51 -1.07053 423.899 -26.8306 416.362C-40.0535 412.521 -55.1374 409.525 -66.9666 401.766C-80.0363 393.324 -80.3355 381.839 -81.6491 366.874Z" stroke="#FF7171" stroke-opacity="0.15" stroke-width="5"/>
<path fill-rule="evenodd" clip-rule="evenodd" d="M-58.3007 344.433C-58.1116 310.798 -50.8014 274.93 -29.1255 248.985C-11.0719 227.374 17.1868 220.15 34.4693 198.058C48.1586 180.567 55.1269 156.014 64.2919 135.702C75.5008 110.812 91.3504 67.3308 119.224 58.6926C146.428 50.2837 170.489 98.176 180.92 117.126C196.195 144.914 208.56 174.368 223.974 202.079C236.048 223.819 250.814 237.832 270.475 251.844C293.555 268.302 325.756 286.534 338.085 313.764C346.973 333.479 325.458 364.981 317.646 382.349C312.408 394.015 307.615 405.863 304.982 418.507C302.931 428.353 302.727 437.465 296.784 445.92C281.822 467.187 249.017 469.962 226.759 476.972C197.199 486.275 165.834 496.847 134.899 498.865C115.885 500.127 106.182 481.696 95.3292 468.731C82.5055 453.404 64.3501 442.381 48.4932 430.815C27.5665 415.526 4.79222 406.016 -18.7676 396.277C-29.3946 391.882 -41.8764 387.57 -50.1104 378.833C-58.708 369.774 -58.3662 356.572 -58.3007 344.433Z" stroke="#FF4A31" stroke-opacity="0.15" stroke-width="5"/>
<path fill-rule="evenodd" clip-rule="evenodd" d="M-33.7776 324.465C-30.0205 296.216 -18.3123 269.216 1.46349 249.246C16.623 233.914 36.7555 225.282 48.9224 206.861C60.2593 189.689 68.1594 170.164 77.5231 151.804C87.4328 132.394 102.155 99.9512 125.011 94.6693C149.644 88.9811 168.618 121.707 179.125 139.845C192.399 162.766 202.483 187.428 214.352 211.139C223.293 228.811 234.698 244.974 248.188 259.09C262.335 273.969 281.521 288.22 288.678 308.681C295.006 326.803 283.166 348.728 281.077 367.103C278.841 386.736 282.759 407.357 270.366 424.215C244.809 458.98 180.669 452.533 144.001 453.277C107.82 454.043 78.7318 432.77 49.454 412.532C30.1151 399.17 9.97522 387.855 -9.85153 375.406C-30.0642 362.703 -37.0833 349.326 -33.7776 324.465Z" stroke="#297DBB" stroke-opacity="0.15" stroke-width="5"/>
<path fill-rule="evenodd" clip-rule="evenodd" d="M-10.9938 308.296C0.116817 267.372 34.8183 245.62 59.6258 214.692C79.9236 189.373 95.1432 136.94 129.327 130.004C168.138 122.132 191.372 191.606 204.865 218.414C219.837 248.144 246.502 272.328 257.591 303.8C263.419 320.319 258.414 335.733 255.31 352.244C251.908 370.374 249.351 388.911 237.606 403.504C214.489 432.222 169.34 432.023 136.824 432.813C103.165 433.634 73.3883 413.954 46.57 394.312C18.1269 373.512 -22.3739 350.265 -10.9938 308.296Z" stroke="#297DBB" stroke-opacity="0.15" stroke-width="5"/>
<path fill-rule="evenodd" clip-rule="evenodd" d="M7.61539 297.199C20.1349 268.041 46.4436 244.337 67.7914 221.959C85.6094 203.304 104.778 165.749 131.945 163.072C163.875 159.914 183.227 200.017 195.79 224.606C208.156 248.768 225.974 274.28 232.821 300.799C239.961 328.424 220.947 365.628 202.813 385.176C182.588 406.973 149.499 415.027 121.106 414.158C91.3775 413.273 64.1001 395.258 41.5855 376.572C17.5151 356.598 -6.94428 331.047 7.61539 297.199Z" stroke="#FF4A31" stroke-opacity="0.15" stroke-width="5"/>
<path fill-rule="evenodd" clip-rule="evenodd" d="M24.8828 291.709C36.8415 267.458 57.5711 246.943 76.6846 228.643C91.4347 214.516 113.2 190.494 134.48 189.905C157.891 189.256 177.732 209.42 187.039 230.088C196.214 250.473 205.88 276.031 207.254 298.395C210.236 347.097 149.517 401.651 103.922 397.212C60.693 393.002 1.03866 340.029 24.8828 291.709Z" stroke="#297DBB" stroke-opacity="0.15" stroke-width="5"/>
<path fill-rule="evenodd" clip-rule="evenodd" d="M40.8516 289.036C57.3494 257.438 97.4228 212.391 134.523 211.321C177.107 210.099 187.797 260.227 182.247 296.555C176.608 333.632 127.511 387.298 88.3626 380.046C50.1541 372.97 21.2994 326.51 40.8516 289.036Z" stroke="#00FFFF" stroke-opacity="0.15" stroke-width="5"/>
<path fill-rule="evenodd" clip-rule="evenodd" d="M57.7127 283.926C71.6808 257.47 101.488 224.425 132.576 223.424C169.618 222.241 168.919 264.563 160.519 290.905C151.785 318.255 113.316 364.967 80.8813 357.591C49.342 350.391 44.3269 309.283 57.7127 283.926Z" stroke="#FF4A31" stroke-opacity="0.15" stroke-width="5"/>
<path fill-rule="evenodd" clip-rule="evenodd" d="M72.3984 280.882C81.6183 262.004 104.694 238.144 126.63 237.381C153.443 236.463 148.231 270.031 141.303 286.233C133.069 305.512 105.468 339.011 82.3045 333.582C59.4992 328.238 64.7917 296.436 72.3984 280.882Z" stroke="#297DBB" stroke-opacity="0.15" stroke-width="5"/>
<path fill-rule="evenodd" clip-rule="evenodd" d="M1333.73 1359.49C1274.38 1397.36 1207.29 1428.63 1144.02 1460.4C1051.56 1506.84 957.743 1552.02 860.596 1586.61C808.51 1605.15 741.018 1631.88 685.131 1617.35C664.697 1612.04 646.063 1595.99 627.742 1585.55C602.479 1571.16 576.845 1557.49 551.254 1543.78C499.919 1516.31 448.424 1489.12 397.97 1459.88C373.676 1445.8 350.103 1428.07 324.811 1416.06C310.03 1409.03 292.343 1412.32 276.55 1412.76C239.967 1413.8 203.405 1415.76 166.844 1417.43C122.123 1419.47 77.301 1421.63 32.5296 1420.83C12.3366 1420.46 -37.1187 1424.23 -48.235 1405.94C-54.2157 1396.08 -40.12 1378.32 -33.5857 1370.1C-21.5879 1354.99 -7.79804 1341.38 5.80965 1327.9C37.2793 1296.74 70.7011 1267.06 98.6741 1232.25C113.047 1214.35 131.877 1192.49 122.495 1168.06C113.025 1143.38 96.6198 1122.02 86.6107 1097.43C75.0864 1069.13 70.3077 1039.68 64.8661 1009.67C60.8377 987.495 51.4551 967.845 42.6334 947.398C32.8866 924.799 22.79 902.008 16.0226 878.175C11.5498 862.432 4.3308 834.11 19.9782 824.143C42.2109 809.971 83.9008 821.447 109.244 825.622C144.269 831.383 179.038 838.722 213.968 845.042C239.326 849.638 264.771 854.679 290.551 855.216C332.11 856.081 373.807 853.086 415.257 850.297C492.008 845.134 568.209 838.132 645.218 838.132C712.687 838.132 868.601 920.233 905.097 934.689C977.944 963.547 1052.73 990.904 1121.66 1029.3C1140.31 1039.7 1169.01 1053.55 1178.82 1074.94C1184.88 1088.13 1182.1 1095.75 1196.37 1104.25C1215.85 1115.84 1240.81 1120.39 1262.37 1125.57C1297.1 1133.92 1332.09 1140.99 1366.98 1148.56C1437.54 1163.81 1507.62 1181.06 1577.88 1197.66C1599.13 1202.68 1624.83 1203.79 1645.08 1212.63C1658.13 1218.31 1656.78 1225.46 1646.67 1234.08C1628.95 1249.22 1604.11 1257.62 1583.17 1266.26C1552.5 1278.9 1521.32 1290.19 1490.13 1301.31C1458.93 1312.44 1427.58 1323.21 1396.37 1334.36C1375.76 1341.7 1352.25 1347.67 1333.73 1359.49Z" stroke="#FF4A31" stroke-opacity="0.15" stroke-width="5"/>
<path fill-rule="evenodd" clip-rule="evenodd" d="M1284.89 1351.16C1222.11 1389.11 1152.42 1419.34 1085.25 1448.84C999.269 1486.62 911.346 1522.02 820.757 1545.64C767.568 1559.49 704.812 1574.79 650.464 1558.9C631.075 1553.23 616.59 1540.49 599.97 1529.24C581.026 1516.41 561.354 1504.65 541.681 1493.07C501.184 1469.24 460.26 1446.23 418.908 1424.02C397.006 1412.22 372.896 1396.41 348.152 1392.31C328.479 1389.05 306.133 1393.77 286.372 1395.14C250.787 1397.61 215.208 1400.16 179.608 1402.32C138.528 1404.81 97.3321 1407.12 56.1651 1406.72C33.2208 1406.49 -6.16842 1410.17 -22.3948 1394.57C-36.5519 1380.96 14.9907 1331.74 24.0547 1322.39C52.3616 1293.19 82.133 1265.39 108.48 1234.16C124.051 1215.75 143.009 1193.36 149.574 1168.95C155.163 1148.15 144.379 1124.46 138.011 1105.23C130.047 1081.15 123.621 1056.19 114.367 1032.61C106.127 1011.61 93.0113 992.894 81.4918 973.799C68.8211 952.793 55.9901 931.443 46.5836 908.527C40.8202 894.427 31.2826 870.813 42.7365 857.372C55.9683 841.875 96.7565 852.002 113.522 854.211C147.534 858.753 181.284 865.504 215.062 871.549C271.166 881.584 324.654 890.361 381.785 888.258C456.185 885.512 530.511 879.052 604.896 875.477C632.365 874.142 660.271 871.457 687.762 872.907C703.522 873.743 715.522 878.807 724.688 890.23C737.206 905.819 766.037 914.45 786.089 923.395C817.354 937.335 849.013 950.3 880.584 963.434C949.89 992.28 1020.53 1020.08 1086.26 1057.39C1107.05 1069.19 1130.86 1082.35 1146.25 1101.84C1154.83 1112.71 1152.66 1123.18 1157.9 1134.74C1164.84 1149.93 1187.65 1156.79 1201.28 1161.76C1227.59 1171.37 1254.98 1177.81 1282.16 1183.84C1343.65 1197.48 1405.29 1206.44 1467.79 1213.05C1482.43 1214.58 1540.1 1219.9 1509.81 1245.52C1476.35 1273.84 1428.02 1287.72 1388.63 1303.68C1353.14 1318.02 1317.62 1331.37 1284.89 1351.16Z" stroke="#00FFFF" stroke-opacity="0.15" stroke-width="5"/>
<path fill-rule="evenodd" clip-rule="evenodd" d="M1198.13 1344.14C1139.12 1377.53 1073.75 1402.44 1010.2 1426.27C933.079 1455.18 854.026 1480.96 773.142 1495.4C722.332 1504.46 666.314 1511.42 615.846 1496.36C581.382 1486.08 554.722 1458.29 524.452 1439.17C494.182 1420.05 462.686 1402.11 430.249 1387.15C410.118 1377.86 388.462 1368.51 366.062 1369.74C311.597 1372.71 257.198 1379.8 202.675 1383.23C166.606 1385.53 130.464 1387.42 94.2859 1386.86C72.4695 1386.52 42.4981 1387.9 23.1835 1375.83C1.83386 1362.48 115.512 1248.48 126.256 1235.65C153.193 1203.48 185.811 1160.79 180.604 1115.04C175.622 1071.3 154.031 1038.65 129.611 1004.38C115.752 984.882 71.3096 932.804 87.7796 907.45C97.1889 892.958 128.203 897.975 142.937 898.963C171.975 900.908 200.852 905.091 229.736 908.721C271.852 913.984 315.128 922.111 357.426 924.493C386.879 926.147 416.507 923.934 446.012 923.888C488.317 923.826 530.623 924.163 572.928 924.562C608.45 924.899 644.271 924.562 679.669 928.146C701.675 930.352 718.379 935.308 734.163 949.31C747.898 961.489 768.62 968.621 786.126 976.364C815.039 989.149 844.332 1001 873.53 1013.04C934.661 1038.26 996.493 1062.94 1055.01 1094.45C1081.72 1108.83 1126.63 1128.96 1132.89 1163.82C1135.15 1176.39 1136.82 1181.82 1148.49 1188.97C1165.05 1199.11 1184.89 1203.68 1203.48 1207.66C1246.8 1216.93 1291.38 1215.54 1334.64 1224.7C1352.25 1228.48 1375.25 1236.63 1355.14 1255.29C1331.68 1277.11 1297.52 1289.1 1269.41 1302.58C1255.37 1309.31 1240.92 1315.61 1227.59 1323.82C1217.36 1330.14 1208.6 1338.26 1198.13 1344.14Z" stroke="#297DBB" stroke-opacity="0.15" stroke-width="5"/>
<path fill-rule="evenodd" clip-rule="evenodd" d="M1086.37 1333.71C1031.85 1360.83 972.641 1380.55 914.498 1398.32C849.916 1418.04 783.777 1434.37 716.763 1441.32C670.49 1446.14 621.187 1447.56 576.276 1432.82C547.874 1423.5 528.619 1403.9 504.179 1387.46C467.293 1362.61 427.385 1342.93 383.07 1347.72C333.389 1353.08 283.545 1357.1 233.538 1359.78C203.374 1361.4 173.094 1362.61 142.893 1361.49C123.798 1360.78 99.1979 1359.59 82.5864 1350.49C60.3602 1338.31 143.847 1245.59 154.254 1232.07C180.063 1198.56 198.983 1163.39 210.038 1121.87C219.054 1087.99 200.636 1061.35 181.636 1036.01C169.824 1020.27 131.656 980.678 143.607 960.24C150.161 948.968 171.761 949.552 183.362 948.976C205.472 947.886 227.676 949.022 249.786 949.521C282.433 950.289 317.186 945.014 349.556 949.26C421.296 958.658 492.854 966.797 565.039 973.238C604.831 976.786 644.862 980.01 684.297 986.852C698.455 989.309 713.078 991.911 726.492 997.47C735.122 1001.04 739.827 1007.12 747.109 1012.11C781.832 1035.87 827.159 1048.09 866.266 1063.32C918.256 1083.56 970.522 1103.48 1021.13 1127.39C1047.75 1139.97 1084.92 1154.42 1103.24 1180.08C1108.77 1187.84 1106.41 1194.04 1109.9 1201.5C1113.9 1210.1 1126.07 1212.66 1133.93 1215.06C1151.76 1220.5 1226.42 1228.73 1192.01 1260.67C1175.6 1275.88 1154.68 1285.63 1136.18 1297.59C1129.48 1301.92 1122.95 1306.27 1117.36 1312.12C1108.02 1321.91 1098.81 1327.5 1086.37 1333.71Z" stroke="#FF7171" stroke-opacity="0.15" stroke-width="5"/>
<path fill-rule="evenodd" clip-rule="evenodd" d="M967.28 1321.97C859.657 1365.85 733.527 1395.74 616.19 1389.95C577.17 1388.02 535.188 1381.56 501.364 1359.49C481.42 1346.45 465.482 1331.73 441.524 1327.02C424.229 1323.62 405.606 1327.48 388.209 1328.88C363.01 1330.9 337.798 1332.71 312.563 1334.18C281.278 1335.96 249.892 1337.34 218.549 1336.61C196.153 1336.08 165.226 1336.68 145.771 1324.02C122.543 1308.93 181.667 1238.11 189.987 1225.49C210.15 1194.91 224.285 1165.28 229.393 1128.43C230.896 1117.69 235.961 1106.68 235.304 1095.86C234.618 1084.8 228.145 1074.96 222.169 1066.27C214.353 1054.88 187.235 1027.87 195 1013.98C199.291 1006.31 215.396 1005.34 223.745 1003.71C239.405 1000.65 255.292 998.996 271.047 996.557C297.778 992.399 324.319 978.861 351.145 979.245C423.281 980.257 496.46 1003.79 567.151 1016.71C609.177 1024.42 651.488 1031.42 693.004 1041.86C706.139 1045.16 719.669 1048.59 732.155 1054.19C740.868 1058.1 746.465 1065.08 754.536 1069.46C785.485 1086.28 821.075 1096.49 854.308 1107.81C897.451 1122.54 940.739 1136.82 983.583 1152.5C1010.44 1162.32 1044.97 1170.97 1068.11 1189.19C1085.01 1202.5 1073.46 1206.48 1064.54 1218.88C1059.99 1225.2 1061.04 1231.42 1059.06 1238.58C1056.24 1248.8 1048.25 1256.15 1040.77 1262.77C1030.44 1271.9 1016.68 1279.43 1008.24 1290.62C1005.26 1294.57 1005.4 1299.46 1002.99 1302.9C995.989 1312.91 977.402 1317.85 967.28 1321.97Z" stroke="#FF4A31" stroke-opacity="0.15" stroke-width="5"/>
<path fill-rule="evenodd" clip-rule="evenodd" d="M852.854 1306.34C765.506 1333.93 668.316 1349.63 575.984 1342.34C543.86 1339.8 511.538 1333.9 481.614 1320.94C467.999 1315.07 457.779 1308.51 442.86 1308.16C408.244 1307.35 373.519 1310.19 338.91 1310.88C314.143 1311.37 289.251 1311.54 264.542 1309.45C248.021 1308.05 225.679 1306.38 212.145 1295.72C192.476 1280.2 227.981 1227.43 235.208 1212.85C247.183 1188.68 259.064 1161.8 254.315 1133.82C252.858 1125.27 250.279 1117.71 249.944 1108.98C249.624 1101.49 250.52 1094.57 247.992 1087.4C244.867 1078.52 230.968 1064.73 235.747 1056.55C239.003 1050.96 248.662 1050.7 255.087 1048.91C265.508 1046.01 275.683 1042.21 285.507 1037.54C295.851 1032.6 304.658 1024.97 315.374 1020.88C332.769 1014.27 352.241 1013.65 370.525 1013.68C443.479 1013.8 517.359 1028.94 588.463 1044.77C625.49 1053.01 662.721 1061.8 698.707 1074.3C709.633 1078.09 722.017 1081.91 731.625 1088.92C737.62 1093.29 741.685 1098.76 748.496 1102.04C806.678 1130.08 873.943 1140.49 935.708 1160.74C951.785 1166.01 1040.88 1192.64 994.298 1217.7C965.997 1232.92 936.094 1239.84 910.271 1260.66C902.404 1266.99 897.159 1272.24 894.085 1281.9C892.059 1288.33 896.933 1285.06 890.129 1291.79C881.876 1299.87 863.031 1303.13 852.854 1306.34Z" stroke="#FF7171" stroke-opacity="0.15" stroke-width="5"/>
<path fill-rule="evenodd" clip-rule="evenodd" d="M762.032 1290.03C659.766 1312.55 551.467 1313.62 447.588 1293.66C421.4 1288.63 394.147 1289.83 367.638 1288.55C341.882 1287.33 296.089 1289.88 277.381 1269.05C263.817 1253.94 278.535 1221.85 283.627 1204.96C290.113 1183.44 295.782 1161.2 285.132 1140.3C278.893 1128.06 270.347 1116.41 263.656 1104.28C260.456 1098.49 253.868 1089.62 256.614 1084.13C261.158 1075.08 282.414 1071.27 292.728 1067C325.694 1053.36 360.603 1049.88 395.849 1049.98C460.948 1050.16 526.383 1059.52 590.24 1072.22C619.62 1078.07 649.408 1084.3 677.743 1094.46C693.777 1100.21 705.603 1111.29 720.914 1117.86C770.213 1139.04 823.179 1150.36 873.326 1169.72C887.84 1175.33 942.056 1193.99 914.743 1216C888.3 1237.31 849.732 1234.78 822.237 1254.82C819.125 1257.12 815.276 1259.86 813.471 1263.58C812.405 1265.79 814.282 1270.02 813.471 1271.28C805.027 1285 775.012 1287.18 762.032 1290.03Z" stroke="#297DBB" stroke-opacity="0.15" stroke-width="5"/>
<path fill-rule="evenodd" clip-rule="evenodd" d="M695.776 1275.15C643.311 1282.72 589.692 1284.6 536.344 1285.07C507.183 1285.33 475.144 1287.29 446.611 1279.52C429.084 1274.73 412.156 1270.55 394.088 1267.54C374.648 1264.29 343.347 1261.93 331.509 1244.34C322.665 1231.19 328.726 1204.17 329.047 1188.18C329.391 1170.65 325.973 1157.65 314.208 1145.11C306.81 1137.21 272.873 1108.53 276.794 1100.26C280.526 1092.39 304.173 1091.18 314.398 1089.13C346.713 1082.64 379.46 1080.38 412.331 1080.73C463.24 1081.27 514.34 1086.73 564.453 1096.12C585.172 1100.02 606.584 1104.06 626.375 1111.85C639.703 1117.1 650.818 1126.42 664.059 1131.85C701.976 1147.42 742.07 1158 780.118 1173.86C792.329 1178.96 832.116 1192.54 822.578 1213.46C814.625 1230.93 787.575 1236.24 774.283 1247.95C751.673 1267.92 724.608 1271 695.776 1275.15Z" stroke="#297DBB" stroke-opacity="0.15" stroke-width="5"/>
<path fill-rule="evenodd" clip-rule="evenodd" d="M662.724 1265.11C621.106 1270.12 578.52 1272.31 536.291 1272.42C509.037 1272.49 480.285 1272.88 453.541 1266.44C440.107 1263.2 428.433 1255.64 415.719 1250.25C402.627 1244.7 384.56 1238.51 378.901 1225.79C373.584 1213.84 375.57 1196.4 370.9 1181.99C366.747 1169.2 358.056 1161.3 348.695 1152.66C342.73 1147.13 312.102 1123.22 315.644 1117.94C319.441 1112.29 337.835 1112.75 347.407 1111.96C373.779 1109.77 400.244 1109.07 426.687 1109.87C462.778 1111.04 499.145 1114.29 534.61 1121.64C559.769 1126.85 578.745 1139.26 602.202 1148.37C632.59 1160.19 664.07 1169.54 694.167 1182.47C709.165 1188.91 731.363 1197.2 739.044 1213.84C741.997 1220.21 744.863 1236.42 741.575 1242.8C737.626 1250.46 722.926 1253.71 715.987 1255.68C698.604 1260.59 680.413 1262.98 662.724 1265.11Z" stroke="#FF4A31" stroke-opacity="0.15" stroke-width="5"/>
<rect width="1728" height="219" fill="url(#paint0_linear_439_3919)"/>
<rect width="1728" height="219" transform="matrix(1 0 0 -1 0 1117)" fill="url(#paint1_linear_439_3919)"/>
</g>
<defs>
<linearGradient id="paint0_linear_439_3919" x1="864" y1="0" x2="864" y2="219" gradientUnits="userSpaceOnUse">
<stop stop-color="white"/>
<stop offset="1" stop-color="white" stop-opacity="0"/>
</linearGradient>
<linearGradient id="paint1_linear_439_3919" x1="864" y1="0" x2="864" y2="219" gradientUnits="userSpaceOnUse">
<stop stop-color="white"/>
<stop offset="1" stop-color="white" stop-opacity="0"/>
</linearGradient>
<clipPath id="clip0_439_3919">
<rect width="1728" height="1117" fill="white"/>
</clipPath>
</defs>
</svg>
