<svg width="2050" height="2000" viewBox="0 0 2050 2000" fill="none" xmlns="http://www.w3.org/2000/svg">
<path fill-rule="evenodd" clip-rule="evenodd" d="M752.344 723.55C752.227 697.261 705.707 667.698 685.836 652.457C646.544 622.311 605.679 594.474 565.193 566.191C524.706 537.909 484.111 509.703 445.505 478.653C420.437 458.498 390.983 435.797 373.983 407.016C337.767 345.683 451.953 354.791 481.531 353.449C556.776 350.022 643.083 351.586 713.614 319.647C755.718 300.58 772.507 268.602 763.464 221.997C760.549 206.84 751.921 189.398 759.23 174.632C767.034 158.862 784.989 149.761 799.891 143.659C854.245 121.425 916.738 118.849 974.246 116.059C1036.26 112.992 1098.85 113.889 1160.43 113.651C1186.54 113.552 1213.81 103.685 1238.67 95.6652C1271.26 85.1542 1303.47 73.3476 1335.8 61.9319C1406.91 36.8773 1480.19 10.4886 1555.43 4.12528C1602.54 0.138615 1654.04 5.52829 1690.64 40.2046C1709.02 57.6156 1718.64 83.4983 1729.26 106.491C1742.12 134.267 1754.48 162.312 1768.17 189.651C1812.28 277.703 1875.25 363.746 1977.46 368.07C1992.93 368.721 2008.11 366.598 2023.5 366.199C2033.3 365.954 2042.03 368.445 2045.67 379.232C2054.83 406.288 2026.04 448.999 2014.23 470.466C1988.39 517.455 1959.24 562.335 1931.94 608.381C1913.87 638.833 1882.6 680.448 1882.27 717.447C1881.98 750.414 1923.66 774.242 1946.36 790.48C1967.62 805.683 2006.15 826.958 2008.48 857.885C2009.61 872.881 2000.21 885.309 1990.39 894.953C1973.19 911.82 1953.37 923.719 1937.89 942.962C1912.51 974.533 1891.3 1017.97 1894.75 1060.51C1897.14 1089.99 1913.13 1109.3 1933.47 1127.75C1942.01 1135.51 1948.95 1141 1949.4 1153.6C1950.13 1173.6 1942.68 1194.77 1936.55 1213.31C1914.6 1279.68 1883.43 1343.86 1848.75 1403.78C1831.42 1433.73 1812.7 1463.58 1789.72 1489.13C1774.68 1505.9 1754.38 1525.87 1731.43 1525.84C1704.85 1525.84 1676.73 1515.75 1650.9 1508.21C1602.65 1494.11 1554.99 1477.81 1507.51 1461.09C1397.72 1422.4 1288.97 1380.59 1181.24 1335.63C1105.36 1303.92 1027.87 1272.15 956.532 1229.99C942.619 1221.71 929.487 1212.05 917.313 1201.15C904.306 1189.71 888.166 1184.58 871.799 1180.77C770.219 1157.07 658.932 1175.26 556.929 1186.67C531.039 1189.56 505.148 1192.47 479.185 1194.49C456.865 1196.23 430.144 1201.22 408.45 1193.72C365.705 1178.96 403.073 1124.57 418.871 1102.41C474.492 1024.37 546.254 958.341 612.769 890.936C644.395 858.836 676.261 826.82 706.166 792.902C721.739 775.269 752.446 746.596 752.344 723.55Z" stroke="#297DBB" stroke-opacity="0.25" stroke-width="5"/>
<path fill-rule="evenodd" clip-rule="evenodd" d="M771.511 719.118C754.463 691.301 724.551 670.74 699.722 651.39C663.992 623.534 627.138 597.226 590.839 570.16C556.516 544.564 522.119 518.678 490.334 489.611C470.952 471.886 446.633 450.689 437.452 424.473C417.538 367.65 524.672 376.271 551.119 374.784C616.871 371.106 691.417 370.263 752.246 340.346C790.23 321.663 805.835 290.68 797.733 247.666C794.933 232.784 789.887 220.078 796.275 205.273C803.662 188.138 820.652 177.455 836.228 169.914C885.018 146.289 942.69 141.269 995.579 137.093C1050.22 132.778 1107.15 129.736 1160.03 132.893C1181.17 134.15 1205.51 127.015 1226.44 121.544C1258.64 113.114 1290.52 103.389 1322.56 94.3468C1387.67 75.9549 1454.48 58.2375 1522.23 56.2221C1571.13 54.766 1622.13 62.6592 1662.81 93.1667C1704.05 124.103 1722.35 172.06 1745.21 217.649C1784.71 296.466 1838.05 392.295 1929.42 408.947C1943.27 411.476 1956.59 410.105 1970.43 410.725C1977.54 411.039 1985.64 412.036 1989.25 419.415C1998.62 438.574 1972.95 473.602 1964.31 488.278C1940.43 528.832 1913.59 567.401 1888.57 607.173C1868.7 638.754 1843.52 673.844 1835.83 711.279C1826.5 756.707 1887.44 789.031 1908.87 821.017C1946.03 876.484 1875.64 908.087 1840.94 934.533C1801.08 964.895 1768.19 1020.29 1803.91 1067.26C1817.58 1085.22 1834.39 1095.93 1840.5 1119.37C1850.04 1156.03 1842.82 1197.93 1835.08 1234.17C1823.41 1288.65 1804.95 1342.53 1779.85 1391.77C1761.87 1427.02 1732.04 1482.3 1688.35 1478.15C1658.94 1475.38 1629.05 1465.28 1600.41 1456.34C1557.53 1442.97 1515.2 1427.73 1473.09 1411.89C1375.88 1375.45 1279.74 1335.26 1185.49 1291.06C1121.18 1260.89 941.801 1137.59 928.303 1133.2C888.059 1120.09 842.302 1122.4 800.811 1124.43C745.618 1127.13 690.702 1134.12 635.83 1140.59C609.71 1143.66 583.459 1147.4 557.201 1148.91C538.512 1149.99 513.967 1150.91 497.596 1139.48C465.643 1117.19 501.242 1066.18 515.965 1044.6C561.066 978.444 618.118 921.153 671.612 862.575C697.863 833.815 724.515 805.1 748.345 774.033C757.956 761.489 782.048 736.3 771.511 719.118Z" stroke="#297DBB" stroke-opacity="0.15" stroke-width="5"/>
<path fill-rule="evenodd" clip-rule="evenodd" d="M795.098 704.851C748.538 649.185 684.276 607.784 628.814 561.293C600.978 537.952 572.966 513.975 548.957 486.172C536.468 471.715 520.873 453.433 518.467 433.281C512.036 379.37 608.597 386.66 637.498 384.613C693.375 380.642 756.5 377.63 807.193 350.119C838.165 333.301 853.417 305.697 847.628 269.417C845.062 253.32 841.067 239.645 847.628 223.838C854.278 207.825 868.13 196.527 882.158 188.056C922.469 163.696 972.565 155.907 1017.95 150.105C1071.19 143.346 1124.84 140.707 1178.45 142.209C1225.4 143.505 1272.13 128.933 1317.97 119.328C1378.7 106.611 1440.54 95.5039 1502.69 97.1826C1551.77 98.5164 1601.24 108.995 1643.2 136.843C1685.83 165.206 1711.47 207.657 1734.58 253.465C1769.52 322.715 1813.06 415.512 1889.71 441.812C1900.85 445.645 1911.24 446.067 1922.74 446.734C1928.33 447.056 1935.54 447.155 1938.31 453.28C1944.97 468.028 1920.34 496.62 1913.46 506.585C1891.52 538.397 1867.73 568.775 1845.23 600.165C1824.24 629.47 1801.36 660.009 1788.32 694.35C1767.56 749.043 1833.92 781.023 1832.07 833.14C1830.91 865.496 1801.44 888.699 1778.11 904.75C1749.39 924.489 1708.03 937.466 1693.65 973.486C1682.94 1000.32 1699.74 1015.93 1712.68 1036.29C1734.62 1070.78 1736.11 1117.54 1733.83 1157.47C1730.75 1211.43 1718.73 1266.18 1698.26 1315.78C1688.99 1338.26 1677.63 1361.65 1660.9 1379.11C1645.24 1395.48 1630.41 1399.67 1609.47 1396.32C1545.37 1386.05 1480.64 1357.42 1419.18 1331.84C1341.94 1299.71 1265.78 1264.24 1191.88 1224.32C1141.49 1197.1 1089.97 1168.3 1045.74 1130.7C1034.22 1120.89 1022.41 1110.24 1013.98 1097.31C1007.61 1087.59 1004.91 1079.56 994.168 1074.01C962.336 1057.57 918.058 1061.87 883.952 1063.58C829.416 1066.3 775.142 1073.54 720.942 1080.07C689.314 1083.9 629.733 1095.96 604.477 1067.03C582.678 1042.06 608.983 999.48 622.42 977.48C656.41 921.844 700.134 873.015 740.7 822.738C759.292 799.696 778.613 776.477 793.967 750.859C797.89 744.328 804.175 735.674 805.254 727.74C806.464 718.649 800.814 711.712 795.098 704.851Z" stroke="#297DBB" stroke-opacity="0.25" stroke-width="5"/>
<path fill-rule="evenodd" clip-rule="evenodd" d="M799.1 717.81C756.077 668.591 704.246 628.155 658.059 582.097C637.35 561.446 616.436 539.782 600.656 514.589C592.169 501.041 583.156 483.988 585.496 467.15C592.212 418.82 671.629 423.185 703.714 420.355C751.389 416.197 806.159 412.008 848.314 385.949C875.928 368.88 886.283 343.672 881.128 311.161C875.593 276.287 887.967 250.972 916.129 231.517C951.437 207.145 996.005 197.211 1037 190.153C1086.39 181.691 1136.41 177.94 1186.44 178.946C1235.1 179.928 1282.24 171.351 1330.58 165.774C1394.67 158.386 1460.82 154.743 1524.18 169.886C1579.36 183.073 1629.19 212.132 1666.55 257.07C1705.57 303.973 1724.88 363.065 1756.57 414.954C1776.33 447.319 1803.88 490.133 1840.81 502.714C1853.13 506.91 1875.57 501.249 1865.73 521.892C1860.11 533.698 1849.59 544.055 1841.28 553.705C1827.84 569.301 1813.97 584.467 1800.31 599.848C1771.2 632.635 1740.03 666.121 1718.21 704.945C1690.72 753.827 1731.58 791.447 1726.6 841.012C1723.93 867.685 1706.29 888.973 1687.64 905.696C1675.57 916.528 1662.37 925.91 1648.88 934.663C1634.8 943.807 1618.14 950.773 1605.86 962.595C1588.36 979.418 1595.96 999.333 1599.24 1021.08C1605.02 1059.3 1606.29 1098.13 1603.02 1136.67C1599.02 1183.92 1589.65 1232.52 1569.91 1275.45C1562.23 1292.17 1552.51 1309.89 1538.06 1321.1C1523.62 1332.31 1508.67 1331.54 1492.12 1328.16C1443.03 1318.19 1394.03 1294.99 1347.46 1272.99C1289.16 1245.46 1232.02 1214.69 1177.44 1179.69C1139.77 1155.52 1101.98 1129.42 1070.46 1096.65C1061.3 1087.12 1052.58 1076.9 1045.53 1065.51C1040.68 1057.69 1038.09 1047.6 1031.07 1041.72C1009.12 1023.38 965.058 1028.86 939.318 1029.93C887.946 1032.05 837.383 1042.15 786.077 1044.61C758.076 1045.95 714.222 1049.33 693.658 1024.25C674.32 1000.67 691.835 963.546 703.393 940.831C726.108 896.169 756.624 856.377 783.977 814.86C795.221 797.776 807.544 779.902 814.829 760.394C821.304 743.011 810.126 730.43 799.1 717.81Z" stroke="#297DBB" stroke-opacity="0.15" stroke-width="5"/>
<path fill-rule="evenodd" clip-rule="evenodd" d="M809.681 718.615C775.437 675.304 734.153 636.857 699.661 592.841C679.471 567.064 644.702 523.729 660.316 487.388C677.446 447.455 737.155 446.367 771.67 443.15C812.749 439.32 860.99 434.088 896.145 409.154C907.264 401.271 916.736 390.838 920.75 377.095C925.049 362.387 920.35 349.518 919.738 334.795C918.455 303.908 935.986 279.112 959.185 262.083C991.972 238.006 1032.97 226.623 1071.7 218.687C1115.57 209.736 1160.17 205.323 1204.86 205.511C1247.58 205.664 1289.84 204.669 1332.59 203.52C1388.5 201.987 1445.2 204.462 1499.44 220.081C1552.87 235.478 1601.45 264.335 1639.6 306.781C1676.83 348.2 1701.94 398.827 1723.94 450.397C1736.42 479.667 1757.51 523.407 1787.28 538.192C1800.52 544.772 1813.51 544.32 1799.43 561.433C1781.71 582.982 1757.81 600.271 1737.28 618.702C1707.66 645.298 1677.3 672.416 1652.44 704.038C1636.57 724.23 1629.49 743.826 1630.58 769.97C1631.43 789.887 1635.26 809.597 1633.32 829.591C1628.78 876.518 1593.64 908.699 1562.58 938.666C1542.59 957.94 1524.34 972.64 1514.05 1000.06C1501.88 1032.46 1496.77 1067.71 1488.64 1101.36C1479.71 1138.3 1469.39 1176.73 1449.9 1209.27C1432.54 1238.25 1411.43 1251.24 1379.84 1243.43C1330.56 1231.27 1282 1201.3 1238.25 1173.58C1193.72 1145.37 1149.96 1113.66 1113.07 1074.89C1093.15 1053.95 1079.55 1029.37 1061.86 1006.88C1039.61 978.645 989.269 989.339 959.352 991.729C909.69 995.697 753.425 1025.39 767.844 929.221C773.863 889.081 797.564 852.035 814.898 816.614C822.082 801.914 832.479 784.272 834.104 767.427C835.875 749.081 819.976 731.653 809.681 718.615Z" stroke="#297DBB" stroke-opacity="0.15" stroke-width="5"/>
<path fill-rule="evenodd" clip-rule="evenodd" d="M827.762 722.293C801.593 683.044 770.274 645.964 747.82 603.573C733.253 576.119 718.949 539.438 737.74 510.39C758.949 477.61 805.715 469.968 840.078 465.791C875.482 461.492 917.748 457.874 946.684 433.019C955.891 425.102 963.48 414.425 964.893 401.641C966.255 389.378 962.409 377.115 963.684 364.63C966.539 336.594 982.7 313.494 1003.54 296.739C1065.18 247.174 1156.92 236.153 1231.29 234.858C1268.51 234.214 1306.82 237.594 1344.29 240.016C1392.91 243.158 1441.59 249.903 1487.96 266.159C1586.54 300.709 1652.62 377.337 1698.76 472.689C1713.29 502.703 1724.4 535.176 1747.16 559.296C1758.89 571.751 1756.33 580.695 1744.33 592.053C1725.58 609.804 1702.7 623.37 1681.89 638.185C1652.28 659.254 1622.04 680.638 1595.86 705.876C1577.81 723.274 1565 740.036 1561.11 766.126C1558.33 784.727 1558.98 803.681 1557.31 822.397C1554.14 857.952 1543.26 893.238 1524.01 922.731C1508.72 946.107 1490.51 967.352 1471.69 987.609C1447.22 1013.98 1426.53 1040.78 1407.95 1072.08C1383.32 1113.51 1348.71 1189.94 1290.69 1169.71C1226.7 1147.4 1166.72 1090.69 1125.67 1035.74C1111.88 1017.29 1100.56 994.668 1081.97 981.064C1054.13 960.73 1025.88 961.443 992.773 961.528C943.203 961.642 835.337 972.963 834.171 894.848C833.712 863.899 846.444 834.637 852.54 804.869C859.415 771.529 845.635 749.042 827.762 722.293Z" stroke="#297DBB" stroke-opacity="0.15" stroke-width="5"/>
<path fill-rule="evenodd" clip-rule="evenodd" d="M847.253 725.793C821.368 674.639 763.325 590.581 807.471 533.698C830.791 503.637 872.037 492.34 906.638 485.608C934.483 480.162 968.063 478.117 989.102 455.033C1004.57 438.061 997.701 413.361 1003.63 392.115C1010.98 365.776 1027.86 344.223 1048.6 328.024C1106.55 282.752 1187.14 268.859 1256.85 265.903C1329.26 262.839 1409.04 277.169 1477.18 304.734C1562.14 339.115 1625.78 404.216 1670.3 486.657C1678.51 501.875 1685.97 517.492 1693.86 532.894C1699.15 543.226 1707.01 553.221 1711.19 564.089C1718.14 582.21 1709.95 597.023 1696.81 608.833C1677.93 625.836 1654.72 637.937 1633.19 650.697C1603.74 668.159 1573.64 685.307 1546.24 705.795C1527.84 719.581 1508.57 734.432 1501.98 758.351C1497.48 774.665 1496.55 791.943 1496.71 808.839C1497.06 845.066 1495.25 874.361 1479.18 907.54C1452.72 962.01 1412.05 1010.99 1369.07 1051.74C1335.35 1083.73 1281.98 1133.41 1232.84 1112.03C1188.75 1092.88 1162.96 1047.05 1133.92 1009.99C1119.79 991.98 1103.93 975.529 1085.29 962.715C1061.79 946.562 1039.66 939.784 1011.82 937.142C964.952 932.692 894.286 931.535 879.799 872.408C874.45 850.588 877.503 827.986 874.697 805.883C871.032 776.656 860.312 751.596 847.253 725.793Z" stroke="#297DBB" stroke-opacity="0.25" stroke-width="5"/>
<path fill-rule="evenodd" clip-rule="evenodd" d="M874.169 727.687C855.737 671.714 831.522 601.173 876.041 551.427C897.604 527.328 927.936 513.856 957.293 503.789C978.318 496.574 1011.7 494.45 1024.59 472.268C1034.06 455.944 1035.37 433.424 1043.93 415.935C1055.7 391.89 1073.53 372.084 1094.45 356.581C1148.94 316.181 1219.9 300.57 1284.62 296.1C1425.25 286.4 1568.34 363.65 1643.59 490.746C1666.03 528.631 1694.99 568.955 1658.73 607.66C1619.14 649.885 1559.51 669.667 1512.26 699.67C1494.2 711.125 1471.2 724.896 1461.13 745.636C1455.07 758.104 1454.65 773.745 1454.38 787.47C1453.65 822.426 1450.89 853.863 1437.52 886.48C1416.88 936.886 1383.97 983.39 1346.68 1021.48C1314.16 1054.7 1267.77 1093.73 1220.54 1069.79C1184.32 1051.38 1161.35 1012.33 1133.21 983.535C1101.9 951.47 1063.17 929.863 1020.64 919.305C979.264 909.061 933.886 902.153 912.082 858.632C904.603 843.704 896.789 824.374 893.985 807.85C889.459 780.607 882.831 753.797 874.169 727.687Z" stroke="#297DBB" stroke-opacity="0.15" stroke-width="5"/>
<path fill-rule="evenodd" clip-rule="evenodd" d="M904.181 728.081C895.654 671.561 894.706 612.626 934.325 568.079C952.816 547.297 976.189 532.533 999.825 519.156C1017.21 509.313 1035.17 501.011 1048.16 484.874C1060.19 469.933 1069.34 452.585 1080.96 437.254C1096.28 416.936 1114.62 399.347 1135.26 385.164C1187.01 349.679 1249.96 333.082 1310.18 327.325C1339.34 324.527 1370.96 323.071 1399.92 330.698C1427.88 338.057 1455.53 349.694 1481.25 363.263C1535.91 392.079 1583.28 434.279 1617.62 487.634C1641.17 524.231 1653.91 559.815 1623.41 596.941C1589.03 638.789 1535.13 661.879 1490.7 689.039C1460.23 707.667 1426.07 725.927 1420.38 765.514C1415.85 797.013 1412.17 826.909 1400.44 856.684C1382.99 900.601 1357.33 940.384 1324.98 973.672C1295.39 1004 1257.97 1029.73 1215.65 1013.53C1182.13 1000.68 1156.12 971.879 1126.82 951.288C1094.18 928.291 1058.31 915.611 1020.55 905.416C986.604 896.217 954.645 882.081 932.707 852.069C928.218 845.936 923.502 839.259 920.04 832.398C915.623 823.644 915.966 814.966 915.099 805.154C912.839 779.259 908.036 753.662 904.181 728.081Z" stroke="#297DBB" stroke-opacity="0.15" stroke-width="5"/>
<path fill-rule="evenodd" clip-rule="evenodd" d="M937.271 723.462C937.999 669.776 950.274 619.038 983.894 577.199C998.267 559.302 1015.43 544.559 1031.25 528.159C1043.98 514.937 1056.01 502.652 1070.66 491.756C1105.39 465.958 1133.62 432.573 1170.53 409.6C1219.81 378.887 1276.25 361.91 1332.26 355.123C1359.61 351.806 1387.86 350.646 1415.52 354.393C1439.29 357.611 1462.05 368.905 1483.16 380.461C1524.54 403.096 1564.71 435.268 1591.58 475.97C1650.81 565.705 1534.03 630.947 1474.09 669.154C1446.52 686.729 1404.4 707.084 1393.11 741.897C1385.04 766.767 1380.12 792.059 1369.72 816.161C1341.8 880.888 1285.12 957.017 1209.58 946.882C1177.26 942.551 1147.8 924.961 1117.62 913.152C1086.55 900.989 1054.49 894.209 1022.19 886.769C992.01 879.821 967.955 869.931 948.46 843.418C939.143 830.757 939.966 815.6 939.136 800.067C937.781 774.552 936.943 748.892 937.271 723.462Z" stroke="#297DBB" stroke-opacity="0.25" stroke-width="5"/>
<path fill-rule="evenodd" clip-rule="evenodd" d="M967.403 716.585C979.539 635.551 1024.61 547.084 1090.88 500.024C1168.84 444.665 1253.29 398.049 1346.43 384.648C1389.61 378.434 1436.91 375.377 1477.66 395.697C1508.67 411.151 1544.69 434.253 1561.75 466.74C1603.51 546.203 1510.64 609.461 1457.73 646.224C1429.24 666.015 1392.98 685.301 1371.51 714.202C1359.05 730.959 1352.69 753.125 1342.63 771.53C1312.16 827.302 1261.99 872.286 1199.5 880.331C1170.6 884.047 1141.49 879.45 1112.82 875.795C1083.46 872.056 1053.74 870.026 1024.57 864.808C1001.29 860.64 973.843 853.583 965.266 827.371C954.451 794.34 962.451 749.677 967.403 716.585Z" stroke="#297DBB" stroke-opacity="0.15" stroke-width="5"/>
<path fill-rule="evenodd" clip-rule="evenodd" d="M996.95 703.568C1014.65 627.382 1052.13 553.067 1115.13 507.586C1148.54 483.469 1187.33 466.82 1224.57 450.372C1266.78 431.73 1310.88 417.259 1355.92 410.082C1412 401.14 1502.83 393.081 1532.13 460.295C1561.22 527.01 1487.73 586.057 1444.27 619.706C1416.41 641.262 1386.59 661.046 1359.96 684.611C1345.53 697.387 1334.41 712.149 1322.19 727.133C1288.43 768.65 1240.3 801.517 1191.24 819.062C1143.7 836.071 1084.87 843.601 1034.68 837.98C1013.03 835.564 997.549 827.413 990.999 804.239C981.924 772.024 989.634 735.039 996.95 703.568Z" stroke="#297DBB" stroke-opacity="0.15" stroke-width="5"/>
<path fill-rule="evenodd" clip-rule="evenodd" d="M1026.31 683.048C1043.89 615.969 1081.82 554.702 1137.13 514.443C1199.14 469.311 1278.99 444.233 1352.37 431.48C1391.38 424.706 1475.92 406.341 1495.8 458.903C1515.68 511.464 1458.2 563.263 1425.12 591.777C1384.97 626.332 1341.68 659.696 1298.44 690.7C1260.87 717.657 1220.79 745.217 1180.1 766.034C1157.15 777.843 1133.24 787.485 1108.66 794.846C1090.46 800.253 1067.31 808.317 1048.23 804.292C1000.1 794.128 1017.9 715.121 1026.31 683.048Z" stroke="#297DBB" stroke-opacity="0.15" stroke-width="5"/>
<path fill-rule="evenodd" clip-rule="evenodd" d="M1062.55 662.961C1101.13 536.107 1223.36 473.718 1341.04 451.972C1368.39 446.924 1445.05 428.725 1460.33 467.476C1475.14 505.047 1428.04 549.604 1405.98 570.714C1337.64 636.129 1253.21 684.631 1173.2 732.681C1148.22 747.678 1103.18 780.225 1072.2 765.212C1038.57 748.881 1054.56 689.265 1062.55 662.961Z" stroke="#297DBB" stroke-opacity="0.15" stroke-width="5"/>
<path fill-rule="evenodd" clip-rule="evenodd" d="M1102.07 638.545C1135.62 545.127 1233.2 491.548 1322.91 473.885C1344.89 469.563 1400.69 456.107 1417.34 482.176C1432.74 506.291 1395.98 541.234 1382.23 555.119C1351.62 586.039 1315.34 611.511 1279.5 635.994C1246.36 658.645 1212.86 681.864 1177.99 701.021C1159.62 711.105 1125.17 732.623 1104.3 717.052C1081.83 700.301 1094.62 659.289 1102.07 638.545Z" stroke="#297DBB" stroke-opacity="0.15" stroke-width="5"/>
<path fill-rule="evenodd" clip-rule="evenodd" d="M1145.61 611.252C1171.18 550.246 1239.67 510.63 1300.08 497.466C1316.33 493.932 1351.47 484.762 1365.18 501.054C1377.81 516.059 1357.46 538.055 1348.43 548.214C1308.41 593.242 1249.8 633.463 1196.1 658.166C1182.6 664.376 1158.33 676.567 1144.44 664.031C1130.2 651.158 1139.74 625.259 1145.61 611.252Z" stroke="#297DBB" stroke-opacity="0.25" stroke-width="5"/>
<path fill-rule="evenodd" clip-rule="evenodd" d="M1191.81 585.626C1206.22 555.333 1243.87 532.477 1275.07 525.202C1297.02 520.086 1323.41 524.505 1304.28 550.874C1285.27 577.042 1250 600.943 1220.11 611.538C1197.31 619.618 1179.43 611.647 1191.81 585.626Z" stroke="#297DBB" stroke-opacity="0.15" stroke-width="5"/>
<path fill-rule="evenodd" clip-rule="evenodd" d="M23.3619 795.44C22.4378 735.592 -7.79661 673.392 7.13499 612.41C19.3961 562.326 81.1236 558.144 118.154 535.453C147.581 517.426 164.281 485.492 180.195 454.851C194.493 427.343 207.336 399.008 222.399 371.952C232.15 354.461 248.893 320.114 270.039 319.493C290.282 318.896 308.845 345.661 320.604 361.483C335.936 382.107 349.529 404.093 364.417 425.046C389.506 460.388 419.61 486.548 454.079 511.307C493.305 539.479 533.178 566.688 573.699 592.936C603.533 612.318 633.571 631.556 662.248 652.853C680.236 666.216 719.937 691.289 720.12 715.926C720.206 727.681 709.619 740.7 702.481 750.096C690.401 766.002 676.634 780.545 662.823 794.774C637.1 821.279 610.286 846.581 583.763 872.19C549.337 905.427 516.454 938.119 486.191 975.851C454.901 1014.91 425.009 1055.25 394.505 1095.04C373.847 1122 353.211 1152.27 323.413 1168.81C286.091 1189.49 255.457 1167.69 217.713 1167.44C185.245 1167.21 187.639 1088.06 183.513 1066.05C179.372 1043.77 170.247 1023.03 166.711 1000.7C162.301 972.826 162.243 944.307 161.159 916.133C159.842 881.671 159.318 848.863 124.31 835.722C104.387 828.255 82.8336 826.685 62.2117 822.213C48.8518 819.311 23.653 814.348 23.3619 795.44Z" stroke="#297DBB" stroke-opacity="0.15" stroke-width="5"/>
<path fill-rule="evenodd" clip-rule="evenodd" d="M39.3247 784.794C35.9213 734.626 15.8148 670.415 34.8282 618.629C51.0724 574.374 101.874 568.637 136.083 545.39C164.322 526.216 176.893 494.839 191.01 464.014C202.335 439.287 213.317 414.322 226.172 390.385C235.646 372.744 250.112 342.963 269.811 339.312C287.52 336.029 306.511 362.321 316.452 375.697C330.954 395.224 343.358 416.431 356.169 437.193C378.681 473.663 401.732 506.459 434.679 533.249C467.772 560.154 503.977 580.272 540.568 601.211C569.194 617.593 597.674 634.451 624.872 653.365C645.131 667.446 674.26 685.47 683.53 710.581C690.869 730.446 653.651 763.41 642.675 775.045C620.084 798.967 596.144 821.424 572.16 843.743C542.922 870.94 512.751 894.724 486.931 925.748C440.75 981.216 402.147 1050.29 342.724 1091.51C306.883 1116.38 266.998 1122.74 227.134 1119.02C211.349 1117.55 207.56 1094.1 205.57 1080.42C202.262 1057.71 201.846 1034.6 199.303 1011.79C196.92 990.435 191.629 970.148 187.366 949.21C183.051 927.995 181.842 906.259 178.664 884.899C176.697 871.638 174.751 856.207 166.144 845.546C157.239 834.509 142.547 829.884 129.706 826.371C105.591 819.837 41.7296 820.197 39.3247 784.794Z" stroke="#297DBB" stroke-opacity="0.25" stroke-width="5"/>
<path fill-rule="evenodd" clip-rule="evenodd" d="M59.8685 763.793C54.1449 717.742 46.1318 660.386 69.4493 617.959C88.5086 583.268 129.157 575.785 158.191 553.181C182.34 534.384 191.461 504.488 203.448 476.706C213.284 453.918 223.171 431.031 235.092 409.347C244.134 392.901 255.785 370.604 273.736 364.866C289.084 359.964 306.423 381.925 314.932 392.855C329.42 411.484 341.231 432.356 352.963 452.953C372.154 486.656 389.813 522.657 417.126 550.071C443.667 576.673 475.194 592.376 507.312 610.031C531.913 623.558 556.36 637.606 579.539 653.738C597.337 666.116 619.393 680.784 628.668 701.381C636.688 719.144 616.098 740.17 605.81 752.701C588.821 773.383 569.966 792.356 551.373 811.406C531.308 831.957 509.084 850.914 489.667 871.971C448.836 916.282 416.215 965.343 365.891 999.291C333.299 1021.28 289.442 1041.26 250.914 1037.67C223.208 1035.08 225.03 970.567 222.369 949.955C217.994 916.252 209.544 880.841 196.121 849.796C184.593 823.194 157.2 814.99 132.001 809.023C116.215 805.278 99.6716 803.256 84.4037 797.465C66.7296 790.755 62.2674 783.095 59.8685 763.793Z" stroke="#297DBB" stroke-opacity="0.15" stroke-width="5"/>
<path fill-rule="evenodd" clip-rule="evenodd" d="M79.0306 742.207C75.6227 703.274 76.389 657.235 98.4638 623.556C117.809 594.057 152.253 586.29 176.751 563.051C195.87 544.921 203.379 515.36 213.661 491.384C226.228 462.069 243.836 407.925 275.537 396.894C305.026 386.638 335.865 452.152 346.541 471.687C363.442 502.608 377.577 536.517 398.075 565.072C415.728 589.655 439.379 603.244 464.482 617.848C496.489 636.5 545.083 658.617 562.195 694.969C574.951 722.057 533.473 762.327 519.308 781.094C504.494 800.699 493.336 823.937 478.048 842.851C453.923 872.696 414.83 896.726 382.554 915.063C351.175 932.901 310.426 952.644 274.829 951.469C251.433 950.701 246.982 912.689 241.99 894.122C234.839 867.726 225.33 844.072 204.904 826.119C184.114 807.843 159.609 799.232 133.849 791.695C120.626 787.854 105.542 784.858 93.7131 777.099C80.6434 768.657 80.3442 757.172 79.0306 742.207Z" stroke="#297DBB" stroke-opacity="0.15" stroke-width="5"/>
<path fill-rule="evenodd" clip-rule="evenodd" d="M102.379 719.766C102.569 686.131 109.879 650.263 131.555 624.318C149.608 602.707 177.867 595.483 195.149 573.391C208.839 555.9 215.807 531.347 224.972 511.035C236.181 486.145 252.031 442.664 279.904 434.026C307.108 425.617 331.17 473.509 341.6 492.459C356.875 520.247 369.241 549.701 384.654 577.412C396.728 599.152 411.494 613.165 431.155 627.177C454.235 643.635 486.436 661.867 498.765 689.097C507.654 708.812 486.138 740.314 478.326 757.682C473.089 769.348 468.295 781.196 465.662 793.84C463.611 803.686 463.407 812.798 457.464 821.253C442.502 842.52 409.697 845.295 387.44 852.305C357.879 861.608 326.514 872.18 295.579 874.198C276.565 875.46 266.862 857.029 256.009 844.064C243.186 828.737 225.03 817.714 209.173 806.148C188.247 790.859 165.472 781.349 141.913 771.61C131.286 767.215 118.804 762.903 110.57 754.166C101.972 745.107 102.314 731.905 102.379 719.766Z" stroke="#297DBB" stroke-opacity="0.15" stroke-width="5"/>
<path fill-rule="evenodd" clip-rule="evenodd" d="M126.903 699.799C130.66 671.549 142.368 644.55 162.144 624.58C177.303 609.248 197.436 600.616 209.603 582.195C220.939 565.023 228.84 545.497 238.203 527.137C248.113 507.727 262.836 475.285 285.691 470.003C310.324 464.315 329.299 497.041 339.805 515.179C353.079 538.1 363.163 562.761 375.032 586.472C383.973 604.145 395.378 620.308 408.868 634.423C423.015 649.303 442.201 663.554 449.359 684.014C455.686 702.137 443.847 724.061 441.757 742.437C439.522 762.069 443.439 782.691 431.046 799.548C405.489 834.314 341.349 827.867 304.681 828.61C268.5 829.377 239.412 808.104 210.134 787.866C190.795 774.504 170.655 763.189 150.829 750.739C130.616 738.037 123.597 724.659 126.903 699.799Z" stroke="#297DBB" stroke-opacity="0.15" stroke-width="5"/>
<path fill-rule="evenodd" clip-rule="evenodd" d="M149.686 683.63C160.797 642.705 195.498 620.953 220.306 590.026C240.604 564.706 255.823 512.273 290.008 505.337C328.818 497.465 352.052 566.939 365.545 593.747C380.517 623.478 407.182 647.661 418.271 679.134C424.099 695.652 419.094 711.066 415.991 727.578C412.588 745.708 410.031 764.244 398.287 778.837C375.169 807.555 330.02 807.356 297.504 808.146C263.845 808.967 234.069 789.287 207.25 769.646C178.807 748.846 138.306 725.598 149.686 683.63Z" stroke="#297DBB" stroke-opacity="0.15" stroke-width="5"/>
<path fill-rule="evenodd" clip-rule="evenodd" d="M168.296 672.532C180.815 643.375 207.124 619.67 228.472 597.293C246.29 578.637 265.458 541.082 292.625 538.405C324.555 535.248 343.907 575.35 356.47 599.939C368.836 624.101 386.654 649.613 393.501 676.132C400.641 703.757 381.627 740.961 363.493 760.509C343.268 782.307 310.179 790.361 281.786 789.491C252.058 788.606 224.78 770.592 202.266 751.906C178.195 731.931 153.736 706.381 168.296 672.532Z" stroke="#297DBB" stroke-opacity="0.15" stroke-width="5"/>
<path fill-rule="evenodd" clip-rule="evenodd" d="M185.563 667.043C197.522 642.791 218.251 622.276 237.365 603.977C252.115 589.849 273.88 565.827 295.161 565.239C318.571 564.589 338.412 584.753 347.719 605.421C356.894 625.806 366.561 651.364 367.934 673.729C370.917 722.43 310.197 776.984 264.603 772.545C221.373 768.335 161.719 715.362 185.563 667.043Z" stroke="#297DBB" stroke-opacity="0.15" stroke-width="5"/>
<path fill-rule="evenodd" clip-rule="evenodd" d="M201.532 664.369C218.03 632.771 258.103 587.724 295.203 586.654C337.788 585.432 348.478 635.56 342.927 671.888C337.289 708.965 288.192 762.631 249.043 755.379C210.835 748.303 181.98 701.843 201.532 664.369Z" stroke="#297DBB" stroke-opacity="0.25" stroke-width="5"/>
<path fill-rule="evenodd" clip-rule="evenodd" d="M218.393 659.26C232.361 632.803 262.168 599.758 293.256 598.758C330.298 597.574 329.599 639.896 321.199 666.238C312.465 693.588 273.996 740.3 241.561 732.925C210.022 725.725 205.007 684.616 218.393 659.26Z" stroke="#297DBB" stroke-opacity="0.15" stroke-width="5"/>
<path fill-rule="evenodd" clip-rule="evenodd" d="M233.078 656.215C242.298 637.337 265.373 613.478 287.31 612.714C314.123 611.797 308.911 645.365 301.983 661.567C293.749 680.845 266.147 714.344 242.984 708.915C220.179 703.571 225.471 671.769 233.078 656.215Z" stroke="#297DBB" stroke-opacity="0.15" stroke-width="5"/>
<path fill-rule="evenodd" clip-rule="evenodd" d="M1494.41 1734.82C1435.06 1772.7 1367.97 1803.96 1304.7 1835.74C1212.24 1882.17 1118.42 1927.35 1021.28 1961.94C969.191 1980.48 901.699 2007.21 845.811 1992.68C825.378 1987.38 806.744 1971.32 788.423 1960.88C763.16 1946.5 737.525 1932.82 711.934 1919.12C660.6 1891.65 609.104 1864.45 558.651 1835.22C534.357 1821.14 510.784 1803.4 485.491 1791.39C470.711 1784.36 453.024 1787.65 437.231 1788.09C400.647 1789.13 364.086 1791.09 327.524 1792.76C282.804 1794.8 237.982 1796.97 193.21 1796.16C173.017 1795.79 123.562 1799.56 112.446 1781.27C106.465 1771.42 120.561 1753.65 127.095 1745.43C139.093 1730.32 152.883 1716.71 166.49 1703.24C197.96 1672.07 231.382 1642.39 259.355 1607.58C273.727 1589.69 292.558 1567.82 283.176 1543.39C273.706 1518.72 257.3 1497.35 247.291 1472.76C235.767 1444.46 230.988 1415.01 225.547 1385.01C221.518 1362.83 212.136 1343.18 203.314 1322.73C193.567 1300.13 183.471 1277.34 176.703 1253.51C172.23 1237.77 165.011 1209.44 180.659 1199.48C202.892 1185.3 244.581 1196.78 269.925 1200.95C304.949 1206.72 339.719 1214.05 374.649 1220.38C400.006 1224.97 425.452 1230.01 451.232 1230.55C492.791 1231.41 534.488 1228.42 575.938 1225.63C652.688 1220.47 728.889 1213.46 805.899 1213.46C873.368 1213.46 1029.28 1295.57 1065.78 1310.02C1138.62 1338.88 1213.41 1366.24 1282.34 1404.63C1300.99 1415.03 1329.69 1428.88 1339.51 1450.28C1345.56 1463.46 1342.78 1471.08 1357.05 1479.58C1376.53 1491.17 1401.49 1495.72 1423.05 1500.91C1457.78 1509.26 1492.77 1516.33 1527.66 1523.89C1598.22 1539.14 1668.3 1556.39 1738.56 1572.99C1759.81 1578.01 1785.51 1579.12 1805.76 1587.96C1818.81 1593.64 1817.46 1600.79 1807.35 1609.41C1789.63 1624.55 1764.79 1632.96 1743.85 1641.59C1713.18 1654.24 1682 1665.52 1650.81 1676.65C1619.61 1687.77 1588.26 1698.55 1557.05 1709.69C1536.44 1717.03 1512.93 1723 1494.41 1734.82Z" stroke="#297DBB" stroke-opacity="0.15" stroke-width="5"/>
<path fill-rule="evenodd" clip-rule="evenodd" d="M1445.57 1726.49C1382.79 1764.44 1313.1 1794.68 1245.93 1824.18C1159.95 1861.95 1072.03 1897.36 981.437 1920.97C928.248 1934.83 865.492 1950.12 811.144 1934.23C791.755 1928.57 777.27 1915.82 760.651 1904.58C741.706 1891.74 722.034 1879.98 702.361 1868.4C661.864 1844.57 620.94 1821.56 579.589 1799.36C557.686 1787.55 533.576 1771.74 508.832 1767.64C489.16 1764.38 466.813 1769.1 447.053 1770.47C411.467 1772.94 375.888 1775.49 340.288 1777.65C299.208 1780.15 258.012 1782.45 216.845 1782.05C193.901 1781.83 154.512 1785.5 138.285 1769.91C124.128 1756.3 175.671 1707.07 184.735 1697.72C213.042 1668.52 242.813 1640.72 269.16 1609.5C284.731 1591.08 303.689 1568.69 310.254 1544.29C315.843 1523.49 305.059 1499.79 298.691 1480.56C290.727 1456.48 284.301 1431.52 275.047 1407.94C266.807 1386.94 253.691 1368.23 242.172 1349.13C229.501 1328.13 216.67 1306.78 207.264 1283.86C201.5 1269.76 191.963 1246.15 203.417 1232.71C216.648 1217.21 257.437 1227.34 274.202 1229.54C308.214 1234.09 341.964 1240.84 375.743 1246.88C431.846 1256.92 485.334 1265.69 542.465 1263.59C616.865 1260.85 691.191 1254.39 765.576 1250.81C793.045 1249.48 820.951 1246.79 848.442 1248.24C864.202 1249.08 876.202 1254.14 885.368 1265.56C897.886 1281.15 926.718 1289.78 946.769 1298.73C978.034 1312.67 1009.69 1325.63 1041.26 1338.77C1110.57 1367.61 1181.21 1395.42 1246.94 1432.72C1267.73 1444.52 1291.54 1457.68 1306.93 1477.17C1315.51 1488.04 1313.35 1498.52 1318.58 1510.07C1325.52 1525.27 1348.33 1532.13 1361.96 1537.1C1388.27 1546.7 1415.66 1553.14 1442.84 1559.17C1504.33 1572.81 1565.97 1581.78 1628.47 1588.38C1643.11 1589.92 1700.78 1595.23 1670.49 1620.86C1637.03 1649.17 1588.71 1663.05 1549.31 1679.01C1513.82 1693.36 1478.3 1706.71 1445.57 1726.49Z" stroke="#297DBB" stroke-opacity="0.25" stroke-width="5"/>
<path fill-rule="evenodd" clip-rule="evenodd" d="M1358.81 1719.47C1299.8 1752.86 1234.43 1777.77 1170.88 1801.6C1093.76 1830.52 1014.71 1856.29 933.822 1870.73C883.012 1879.79 826.993 1886.75 776.526 1871.69C742.062 1861.41 715.402 1833.63 685.132 1814.51C654.861 1795.39 623.366 1777.44 590.929 1762.48C570.798 1753.2 549.141 1743.85 526.741 1745.07C472.277 1748.04 417.878 1755.13 363.355 1758.57C327.286 1760.87 291.144 1762.76 254.966 1762.19C233.149 1761.85 203.178 1763.23 183.863 1751.16C162.514 1737.81 276.191 1623.82 286.935 1610.99C313.872 1578.82 346.491 1536.12 341.283 1490.37C336.301 1446.63 314.711 1413.98 290.291 1379.71C276.432 1360.22 231.989 1308.14 248.459 1282.78C257.869 1268.29 288.883 1273.31 303.617 1274.3C332.654 1276.24 361.531 1280.42 390.416 1284.05C432.532 1289.32 475.807 1297.44 518.105 1299.83C547.559 1301.48 577.187 1299.27 606.691 1299.22C648.997 1299.16 691.302 1299.5 733.608 1299.89C769.13 1300.23 804.951 1299.89 840.349 1303.48C862.355 1305.69 879.058 1310.64 894.843 1324.64C908.577 1336.82 929.3 1343.95 946.805 1351.7C975.719 1364.48 1005.01 1376.33 1034.21 1388.37C1095.34 1413.59 1157.17 1438.28 1215.69 1469.79C1242.4 1484.16 1287.31 1504.29 1293.57 1539.15C1295.83 1551.72 1297.5 1557.15 1309.17 1564.3C1325.73 1574.44 1345.57 1579.02 1364.16 1582.99C1407.48 1592.26 1452.06 1590.87 1495.32 1600.03C1512.93 1603.81 1535.93 1611.96 1515.82 1630.62C1492.36 1652.44 1458.2 1664.44 1430.09 1677.92C1416.05 1684.64 1401.6 1690.94 1388.27 1699.15C1378.04 1705.48 1369.28 1713.59 1358.81 1719.47Z" stroke="#297DBB" stroke-opacity="0.15" stroke-width="5"/>
<path fill-rule="evenodd" clip-rule="evenodd" d="M1247.05 1709.05C1192.53 1736.17 1133.32 1755.88 1075.18 1773.66C1010.6 1793.38 944.456 1809.71 877.443 1816.66C831.169 1821.47 781.867 1822.89 736.955 1808.16C708.554 1798.83 689.299 1779.23 664.858 1762.79C627.973 1737.95 588.064 1718.26 543.75 1723.05C494.069 1728.41 444.225 1732.43 394.218 1735.11C364.054 1736.73 333.773 1737.95 303.573 1736.82C284.478 1736.11 259.878 1734.92 243.266 1725.82C221.04 1713.64 304.527 1620.92 314.933 1607.41C340.743 1573.89 359.663 1538.73 370.717 1497.2C379.733 1463.32 361.316 1436.69 342.316 1411.34C330.503 1395.6 292.336 1356.01 304.286 1335.57C310.841 1324.3 332.441 1324.89 344.042 1324.31C366.151 1323.22 388.356 1324.36 410.465 1324.85C443.113 1325.62 477.865 1320.35 510.236 1324.59C581.976 1333.99 653.534 1342.13 725.718 1348.57C765.51 1352.12 805.542 1355.34 844.977 1362.19C859.134 1364.64 873.758 1367.24 887.172 1372.8C895.802 1376.37 900.506 1382.46 907.789 1387.45C942.512 1411.2 987.838 1423.43 1026.95 1438.65C1078.94 1458.89 1131.2 1478.81 1181.81 1502.72C1208.43 1515.3 1245.6 1529.75 1263.92 1555.42C1269.45 1563.17 1267.09 1569.38 1270.57 1576.83C1274.58 1585.43 1286.75 1588 1294.61 1590.39C1312.44 1595.84 1387.1 1604.07 1352.69 1636C1336.28 1651.21 1315.36 1660.97 1296.86 1672.92C1290.16 1677.25 1283.63 1681.61 1278.04 1687.45C1268.7 1697.25 1259.49 1702.84 1247.05 1709.05Z" stroke="#297DBB" stroke-opacity="0.15" stroke-width="5"/>
<path fill-rule="evenodd" clip-rule="evenodd" d="M1127.96 1697.31C1020.34 1741.18 894.207 1771.07 776.871 1765.28C737.851 1763.35 695.869 1756.9 662.045 1734.82C642.1 1721.78 626.163 1707.06 602.205 1702.35C584.91 1698.96 566.287 1702.81 548.889 1704.21C523.691 1706.23 498.478 1708.04 473.243 1709.51C441.959 1711.3 410.572 1712.68 379.23 1711.94C356.834 1711.41 325.907 1712.01 306.452 1699.35C283.224 1684.26 342.348 1613.45 350.667 1600.83C370.83 1570.25 384.966 1540.62 390.074 1503.76C391.577 1493.02 396.642 1482.01 395.985 1471.19C395.299 1460.14 388.826 1450.3 382.849 1441.61C375.034 1430.22 347.916 1403.2 355.681 1389.31C359.972 1381.64 376.077 1380.67 384.425 1379.05C400.086 1375.98 415.973 1374.33 431.728 1371.89C458.459 1367.73 485 1354.19 511.825 1354.58C583.961 1355.59 657.141 1379.12 727.832 1392.05C769.858 1399.76 812.169 1406.75 853.684 1417.19C866.82 1420.5 880.349 1423.92 892.835 1429.53C901.549 1433.44 907.146 1440.41 915.217 1444.79C946.166 1461.61 981.756 1471.82 1014.99 1483.14C1058.13 1497.87 1101.42 1512.15 1144.26 1527.83C1171.12 1537.65 1205.65 1546.3 1228.79 1564.52C1245.69 1577.83 1234.14 1581.81 1225.22 1594.21C1220.67 1600.53 1221.72 1606.76 1219.74 1613.91C1216.92 1624.13 1208.93 1631.49 1201.45 1638.1C1191.12 1647.23 1177.37 1654.76 1168.92 1665.96C1165.94 1669.9 1166.08 1674.79 1163.68 1678.23C1156.67 1688.24 1138.08 1693.18 1127.96 1697.31Z" stroke="#297DBB" stroke-opacity="0.15" stroke-width="5"/>
<path fill-rule="evenodd" clip-rule="evenodd" d="M1013.53 1681.67C926.186 1709.26 828.996 1724.97 736.665 1717.68C704.54 1715.14 672.219 1709.24 642.294 1696.28C628.679 1690.4 618.459 1683.85 603.541 1683.49C568.925 1682.68 534.199 1685.53 499.591 1686.21C474.823 1686.7 449.932 1686.88 425.223 1684.78C408.702 1683.39 386.36 1681.71 372.825 1671.06C353.157 1655.53 388.662 1602.77 395.888 1588.19C407.864 1564.01 419.745 1537.13 414.995 1509.16C413.539 1500.6 410.96 1493.04 410.625 1484.32C410.304 1476.82 411.2 1469.9 408.672 1462.73C405.547 1453.85 391.649 1440.06 396.427 1431.88C399.683 1426.29 409.343 1426.03 415.768 1424.25C426.188 1421.35 436.363 1417.54 446.188 1412.87C456.532 1407.93 465.339 1400.3 476.054 1396.22C493.45 1389.6 512.921 1388.98 531.205 1389.01C604.16 1389.13 678.039 1404.27 749.143 1420.1C786.171 1428.34 823.402 1437.13 859.387 1449.63C870.314 1453.43 882.698 1457.24 892.306 1464.25C898.301 1468.62 902.366 1474.09 909.177 1477.37C967.358 1505.41 1034.62 1515.82 1096.39 1536.07C1112.47 1541.34 1201.56 1567.98 1154.98 1593.03C1126.68 1608.25 1096.78 1615.17 1070.95 1636C1063.08 1642.33 1057.84 1647.57 1054.77 1657.23C1052.74 1663.66 1057.61 1660.4 1050.81 1667.12C1042.56 1675.2 1023.71 1678.46 1013.53 1681.67Z" stroke="#297DBB" stroke-opacity="0.15" stroke-width="5"/>
<path fill-rule="evenodd" clip-rule="evenodd" d="M922.712 1665.36C820.447 1687.88 712.147 1688.95 608.268 1668.99C582.08 1663.96 554.827 1665.17 528.318 1663.89C502.562 1662.66 456.769 1665.21 438.061 1644.38C424.497 1629.28 439.216 1597.18 444.307 1580.29C450.794 1558.77 456.462 1536.54 445.812 1515.64C439.574 1503.4 431.027 1491.74 424.336 1479.62C421.137 1473.83 414.548 1464.95 417.294 1459.47C421.838 1450.42 443.094 1446.61 453.409 1442.34C486.375 1428.7 521.284 1425.22 556.529 1425.31C621.628 1425.49 687.063 1434.86 750.921 1447.56C780.3 1453.4 810.089 1459.64 838.423 1469.8C854.457 1475.54 866.283 1486.63 881.594 1493.2C930.893 1514.37 983.859 1525.69 1034.01 1545.05C1048.52 1550.66 1102.74 1569.33 1075.42 1591.34C1048.98 1612.64 1010.41 1610.11 982.917 1630.16C979.805 1632.45 975.956 1635.2 974.152 1638.91C973.085 1641.13 974.962 1645.35 974.152 1646.61C965.707 1660.33 935.692 1662.51 922.712 1665.36Z" stroke="#297DBB" stroke-opacity="0.15" stroke-width="5"/>
<path fill-rule="evenodd" clip-rule="evenodd" d="M856.455 1650.48C803.991 1658.05 750.372 1659.93 697.023 1660.41C667.862 1660.67 635.824 1662.62 607.291 1654.85C589.764 1650.07 572.835 1645.88 554.768 1642.87C535.327 1639.62 504.026 1637.26 492.188 1619.67C483.344 1606.52 489.406 1579.5 489.727 1563.52C490.07 1545.99 486.653 1532.99 474.887 1520.44C467.489 1512.54 433.552 1483.87 437.474 1475.6C441.206 1467.72 464.853 1466.51 475.077 1464.47C507.393 1457.97 540.14 1455.71 573.011 1456.07C623.92 1456.61 675.019 1462.07 725.133 1471.45C745.851 1475.35 767.264 1479.39 787.055 1487.18C800.383 1492.43 811.498 1501.75 824.738 1507.18C862.656 1522.76 902.749 1533.33 940.798 1549.19C953.009 1554.29 992.795 1567.87 983.258 1588.79C975.305 1606.26 948.254 1611.58 934.963 1623.28C912.353 1643.25 885.288 1646.33 856.455 1650.48Z" stroke="#297DBB" stroke-opacity="0.15" stroke-width="5"/>
<path fill-rule="evenodd" clip-rule="evenodd" d="M823.404 1640.44C781.785 1645.46 739.2 1647.65 696.97 1647.75C669.717 1647.82 640.965 1648.21 614.221 1641.77C600.787 1638.54 589.113 1630.97 576.399 1625.58C563.307 1620.03 545.239 1613.84 539.581 1601.12C534.264 1589.17 536.25 1571.73 531.58 1557.32C527.427 1544.53 518.735 1536.63 509.374 1527.99C503.41 1522.47 472.782 1498.55 476.324 1493.27C480.121 1487.62 498.515 1488.08 508.087 1487.3C534.459 1485.11 560.924 1484.41 587.367 1485.21C623.458 1486.37 659.825 1489.62 695.29 1496.97C720.449 1502.18 739.425 1514.6 762.882 1523.7C793.27 1535.52 824.749 1544.87 854.847 1557.8C869.845 1564.25 892.043 1572.54 899.724 1589.17C902.677 1595.55 905.543 1611.76 902.255 1618.13C898.306 1625.79 883.606 1629.04 876.667 1631.01C859.284 1635.92 841.093 1638.31 823.404 1640.44Z" stroke="#297DBB" stroke-opacity="0.15" stroke-width="5"/>
</svg>
